<?xml version="1.0" standalone="no"?>
<!DOCTYPE svg PUBLIC "-//W3C//DTD SVG 1.1//EN" "http://www.w3.org/Graphics/SVG/1.1/DTD/svg11.dtd" >
<!--
2013-9-30: Created.
-->
<svg>
<metadata>
Created by iconfont
</metadata>
<defs>

<font id="iconfont" horiz-adv-x="1024" >
  <font-face
    font-family="iconfont"
    font-weight="500"
    font-stretch="normal"
    units-per-em="1024"
    ascent="896"
    descent="-128"
  />
    <missing-glyph />
    
    <glyph glyph-name="biaoti" unicode="&#58923;" d="M116.181404 762.277854 116.181404 454.866575 201.417293 454.866575 201.417293 762.277854 317.598697 762.277854 317.598697 832 0 832 0 762.277854 116.181404 762.277854ZM412.356282 770.200826 412.356282 832 335.263948 832 335.263948 770.200826 412.356282 770.200826ZM335.263948 727.944979 335.263948 454.866575 412.356282 454.866575 412.356282 727.944979 335.263948 727.944979ZM550.003263 727.944979 550.003263 809.815681 472.91093 809.815681 472.91093 727.944979 426.221206 727.944979 426.221206 677.766163 472.91093 677.766163 472.91093 516.66575C472.91093 502.932531 475.263489 491.840483 479.968678 483.389271 484.673868 474.93806 491.098164 468.423682 499.241762 463.845942 507.385359 459.268203 516.795596 456.187078 527.472757 454.602476 538.149917 453.017874 549.4603 452.225585 561.404242 452.225585 569.004932 452.225585 576.786475 452.401649 584.749103 452.753782 592.711731 453.105916 599.950376 453.810173 606.465253 454.866575L606.465253 512.968363C602.845877 512.264095 599.045588 511.735903 595.064275 511.383769 591.082961 511.031635 586.92074 510.855571 582.577488 510.855571 569.547733 510.855571 560.86136 512.968342 556.518108 517.193948 552.174856 521.419553 550.003263 529.870638 550.003263 542.547455L550.003263 677.766163 606.465253 677.766163 606.465253 727.944979 550.003263 727.944979ZM624.673409 832 624.673409 454.866575 701.765741 454.866575 701.765741 832 624.673409 832ZM930.620557 620.720771 805.209786 620.720771C805.571725 626.002778 806.748006 631.988963 808.738662 638.679505 810.729318 645.370047 814.167674 651.708361 819.05383 657.694636 823.939994 663.68091 830.454771 668.698742 838.598368 672.74828 846.741965 676.79782 856.966547 678.822559 869.272429 678.822559 888.09319 678.822559 902.118061 673.892759 911.347469 664.033012 920.576883 654.173266 927.001178 639.735996 930.620557 620.720771L930.620557 620.720771ZM805.209786 573.182943 1007.71289 573.182943C1009.16064 594.310972 1007.350976 614.558363 1002.283853 633.925722 997.216723 653.293082 988.982765 670.54738 977.581728 685.689133 966.180691 700.830887 951.612922 712.89129 933.877978 721.870701 916.143034 730.850114 895.33193 735.339752 871.444045 735.339752 850.089722 735.339752 830.635866 731.642403 813.081888 724.247593 795.527917 716.852783 780.417248 706.729087 767.749427 693.876204 755.081613 681.02332 745.30944 665.793761 738.432627 648.18707 731.555808 630.58038 728.117453 611.565439 728.117453 591.141678 728.117453 570.013649 731.465325 550.64658 738.161171 533.03989 744.857018 515.433199 754.357741 500.291673 766.663622 487.614856 778.969498 474.938038 793.98969 465.166472 811.724634 458.299862 829.459578 451.433253 849.36585 448 871.444045 448 903.29456 448 930.439475 455.042571 952.87961 469.127923 975.319744 483.213276 991.968627 506.629823 1002.826752 539.378267L934.963782 539.378267C932.430221 530.927055 925.55351 522.916131 914.33344 515.345254 903.113376 507.774378 889.721882 503.988996 874.158566 503.988996 852.442304 503.988996 835.793421 509.446988 824.211418 520.363136 812.629414 531.279284 806.295597 548.885711 805.209786 573.182943ZM0 320 1024 320 1024 256 0 256 0 320ZM0 128 1024 128 1024 64 0 64 0 128ZM0-64 768-64 768-128 0-128 0-64Z"  horiz-adv-x="1024" />

    
    <glyph glyph-name="asterisks-1-copy" unicode="&#58904;" d="M804.43 482.715l-258.228-98.715 258.14-98.715c65.75-25.363 103.75-45.601 113.914-60.801 10.074-15.201 15.201-30.401 15.201-45.601 0-40.563-7.687-63.364-23.067-68.314-15.289-5.125-30.667-7.599-45.955-7.599-15.466 0-30.754 3.801-46.043 11.399-15.377 7.599-33.228 18.999-53.644 34.201l-237.461 212.628 53.731-318.941c5.037-15.201 7.599-29.164 7.599-41.801 0-12.725 0-21.562 0-26.601 0-30.401-7.599-51.964-22.976-64.513-15.377-12.725-33.228-18.999-53.644-18.999-15.643 0-32.522 5.037-50.814 15.201-18.293 10.074-27.307 32.875-27.307 68.314 0 10.074 1.326 20.238 3.889 30.401 2.652 10.074 3.889 22.8 3.889 38.001l62.391 318.941-241.968-212.628c-15.643-10.162-32.522-20.238-50.814-30.401s-35.085-15.201-50.639-15.201c-15.643 0-31.197 5.037-46.837 15.201-15.643 10.074-23.419 30.401-23.419 60.801 0 20.238 7.599 38.001 22.8 53.201s50.55 32.875 106.314 53.201l258.405 98.626-258.228 98.715c-35.438 15.201-65.84 29.075-91.114 41.801-25.363 12.637-38.001 34.201-38.001 64.513 0 25.275 7.599 44.275 22.889 57.001 15.377 12.548 30.578 18.999 46.043 18.999 15.289 0 31.902-3.801 49.842-11.399 17.764-7.599 34.377-18.999 49.842-34.201l237.549-212.628-53.644 318.941c0 15.201-1.326 27.749-3.889 38.001-2.652 10.074-3.801 20.238-3.801 30.401 0 20.238 7.599 39.15 22.976 57.001 15.377 17.586 33.317 26.511 53.644 26.511 31.283 0 51.877-10.162 62.481-30.401 10.339-20.238 15.643-38.001 15.643-53.201 0-10.162 0-21.562 0-34.201 0-12.725-2.652-24.037-7.866-34.201l-62.391-318.852 241.879 212.628c20.769 20.238 38.883 32.875 54.615 38.001 15.643 5.037 31.197 7.599 46.837 7.599 20.769 0 37.648-7.599 50.639-22.8s19.708-32.963 19.708-53.201c0-20.238-5.125-36.763-15.201-49.402-10.252-12.637-48.163-31.637-113.914-56.913z"  horiz-adv-x="1024" />

    
    <glyph glyph-name="shijian" unicode="&#59055;" d="M512 768C300.8 768 128 595.2 128 384s172.8-384 384-384 384 172.8 384 384S723.2 768 512 768zM512 32C320 32 160 192 160 384 160 576 320 736 512 736S864 576 864 384C864 192 704 32 512 32zM659.2 531.2c-6.4 6.4-12.8 6.4-19.2 0L499.2 390.4C499.2 390.4 499.2 384 499.2 384l0-288c0-6.4 6.4-12.8 12.8-12.8s12.8 6.4 12.8 12.8L524.8 371.2l134.4 134.4C665.6 512 665.6 518.4 659.2 531.2L659.2 531.2z"  horiz-adv-x="1024" />

    
    <glyph glyph-name="wode" unicode="&#58905;" d="M997.66272-72.48384 26.33728-72.48384l0 15.36c0 22.67136 30.26432 84.75648 79.15008 145.52576 43.21792 53.72416 113.66912 122.17344 203.8528 143.22176l4.33664 1.00864 4.20864-1.46432c32.50688-11.33056 59.3152-22.12352 82.96448-31.65696 48.57856-19.56864 80.67072-32.49664 117.35552-32.49664 42.52672 0 93.32736 18.28864 175.34976 63.12448l5.08416 2.77504 5.65248-1.26976c219.0592-49.27488 285.15328-275.01056 287.86176-284.5952L997.66272-72.48384zM61.31712-41.76384l894.44864 0c-20.74112 53.8624-91.66336 202.92096-252.6464 242.13504-84.992-46.04928-137.14432-64.07168-184.91392-64.0768-42.63424 0-78.7968 14.5664-128.83456 34.71872-22.28224 8.97536-47.40096 19.09248-77.32736 29.6448C178.11968 166.62528 82.19648 11.35616 61.31712-41.76384zM509.53216 258.11456c-168.23296 0-305.1008 136.86272-305.1008 305.09568 0 168.23296 136.86784 305.1008 305.1008 305.1008 168.23296 0 305.10592-136.86784 305.10592-305.1008C814.63296 394.9824 677.76512 258.11456 509.53216 258.11456zM509.53216 837.59616c-151.29088 0-274.3808-123.08992-274.3808-274.3808 0-151.29088 123.08992-274.37568 274.3808-274.37568 151.296 0 274.38592 123.0848 274.38592 274.37568C783.91296 714.50624 660.82304 837.59616 509.53216 837.59616z"  horiz-adv-x="1024" />

    
    <glyph glyph-name="qq" unicode="&#58890;" d="M778.005407 390.340922c-17.481818 17.978402-23.722399 35.843154-22.253123 63.743005 3.604076 70.860032-13.014606 134.005087-49.386085 187.674084-22.01763 32.528837-51.335562 59.19593-84.785896 77.118019-29.197114 15.643944-61.747452 24.762667-94.859904 26.657878v0.32662l-13.828595 0.107508c-0.678836 0.005119-1.345385 0.005119-2.019102 0.005119-37.540755 0-74.828611-9.351145-107.831507-27.042859-33.438047-17.924136-62.739597-44.585086-84.733677-77.09447-36.422673-53.750908-53.05057-116.942038-49.41885-187.868622 1.524565-27.833299-4.700658-45.689859-22.221383-63.709217-46.153679-47.65879-67.185307-97.061257-64.291807-151.094757 0.072696-1.245045 0.134129-2.525925 0.19761-3.829331 0.773033-15.850769 2.067224-42.382709 27.571184-49.987106a30.540451 30.540451 0 0 1 8.834082-1.301358c15.461692 0 25.763003 11.291407 34.040092 20.366103 2.093845 2.295551 4.073016 4.463116 6.002016 6.307134 3.33889 3.232406 6.401331 7.314637 9.363431 11.26069 1.096581 1.462108 2.543331 3.390084 3.946054 5.134785 13.01563-15.297871 24.329563-35.315853 33.696066-59.642344 0.200682-0.51911 0.331739-0.936855 0.416721-1.260403-2.463468-1.493849-8.39586-2.932408-11.424512-3.667557-3.32046-0.805798-6.458669-1.566545-9.240565-2.718415-19.544947-7.888013-47.254356-35.5708-44.849249-70.157647 1.155967-16.13848 10.544995-44.767338 60.436879-55.182299 27.239445-5.692802 53.330091-8.578111 77.548051-8.578112 40.650295 0 74.940215 8.194154 101.962596 24.382806 11.808469 7.135457 24.153455 10.328955 31.149663 10.328955 7.134433 0 19.725151-3.208857 31.740445-10.359672 27.039788-16.176364 61.352233-24.37871 101.984098-24.37871 24.190315 0 50.265602 2.895548 77.488665 8.603709 49.919529 10.420081 59.259411 39.062249 60.382613 55.183323 2.488041 34.752716-24.704305 61.949158-44.807269 70.159694l-0.10546 0.043004c-2.672341 1.065865-5.690755 1.78668-8.886301 2.549474-2.881213 0.688051-9.228278 2.202377-11.730654 3.763802 0.079863 0.3215 0.206825 0.742317 0.407506 1.263475 9.51599 24.471883 20.84221 44.489865 33.726783 59.631081 1.413986-1.758011 2.871998-3.702369 3.97677-5.17574 2.949814-3.933767 5.999968-7.999616 9.356264-11.261715 1.816373-1.750844 3.75254-3.877454 5.801335-6.127953 8.331355-9.151487 18.699218-20.53914 34.213128-20.53914 2.923193 0 5.871982 0.435151 8.824867 1.310573 25.64116 7.735454 26.844225 34.352377 27.561969 50.25434 0.059385 1.303406 0.116723 2.58531 0.1843 3.814996 3.010223 54.021214-17.966116 103.406274-64.139249 150.98725z m36.30595-149.452446c-0.071672-1.331051-0.134129-2.696914-0.196586-4.08735-0.7116-15.761691-2.00272-23.086566-7.703713-24.806693-0.320476-0.095221-0.593853-0.14232-0.83549-0.14232-3.194522 0-9.455581 6.878462-13.599245 11.429631-2.260739 2.482922-4.597245 5.049802-7.026925 7.392452-1.750844 1.701697-4.136497 4.881885-6.443311 7.956613-6.955253 9.274353-14.837122 19.783512-26.870846 19.797847-5.412258 0-10.575712-2.318076-14.548387-6.528293-17.509463-18.317308-32.504264-43.330827-44.588158-74.405746-4.261411-11.104036-2.080535-19.268498 0.498632-24.163694 6.496552-12.327579 20.853472-15.755547 30.354105-18.023453 1.760059-0.419793 4.160046-0.993169 4.987345-1.310574 10.051482-4.145712 28.986194-21.280433 27.475963-42.364279-1.024909-14.726543-13.901291-24.771882-38.284096-29.861615-25.357544-5.317036-49.507927-8.01395-71.779481-8.013951-35.521654 0-65.01979 6.872318-87.700898 20.440847-14.817668 8.818724-32.453069 14.297535-46.023645 14.297535-13.46102 0-30.921337-5.496216-45.519894-14.316989-22.588958-13.532692-52.059449-20.394772-87.592365-20.394772-22.305342 0-46.477227 2.688723-71.849105 7.990401-24.379733 5.089734-37.275569 15.144288-38.330171 29.85752-1.411938 20.298527 16.874654 38.096725 27.508727 42.358136l0.200681 0.081911c0.791463 0.326619 3.30715 0.936855 5.145024 1.383269 9.404387 2.28224 23.616939 5.729662 30.019294 17.971235 2.55357 4.883933 4.699634 13.029965 0.423888 24.083831-11.869903 30.828163-26.85856 55.867279-44.534916 74.407794-5.129665 5.395876-10.761035 6.527269-14.582175 6.527269-12.01939 0-19.886925-10.483562-26.827843-19.732318-2.310909-3.080871-4.701681-6.265154-6.386996-7.898251-2.554594-2.439919-4.954581-5.07028-7.27573-7.614635-4.096565-4.490761-10.288-11.278097-13.446686-11.278097-0.281568 0-0.51911 0.033788-0.820132 0.124914-5.678468 1.693506-6.977778 8.972307-7.742621 24.645943a429.19225 429.19225 0 0 1-0.208872 4.024894c-2.452205 45.798391 16.023805 88.371542 56.465228 130.129681 23.015918 23.671205 32.00256 48.986769 30.052058 84.597501-3.312269 64.686003 11.713248 122.137233 44.664949 170.764619 38.471467 56.864543 98.056474 90.115219 164.128818 91.821012h8.233062c68.209193 0 130.000672-33.494361 169.533908-91.902923 32.901531-48.548547 47.915785-105.954725 44.629114-170.601821-1.87883-35.679332 7.125218-60.985682 30.097109-84.60774 40.437327-41.671109 58.853952-84.19921 56.300382-130.029341z"  horiz-adv-x="1024" />

    
    <glyph glyph-name="dizhi1" unicode="&#58907;" d="M501.76 865.28C337.92 865.28 204.8 732.16 204.8 565.76c0-163.84 161.28-371.2 299.52-540.16 135.68 171.52 299.52 373.76 299.52 540.16-2.56 166.4-135.68 299.52-302.08 299.52z m0-496.64c-110.08 0-197.12 89.6-197.12 197.12 0 110.08 89.6 197.12 197.12 197.12 110.08 0 197.12-89.6 197.12-197.12 2.56-110.08-87.04-197.12-197.12-197.12z m0 0M389.12 565.76c0-30.72 12.8-58.88 33.28-79.36 20.48-20.48 51.2-33.28 79.36-33.28 30.72 0 58.88 12.8 79.36 33.28 20.48 20.48 33.28 51.2 33.28 79.36 0 30.72-12.8 58.88-33.28 79.36-20.48 20.48-51.2 33.28-79.36 33.28-30.72 0-58.88-12.8-79.36-33.28-20.48-20.48-33.28-48.64-33.28-79.36z m0 0M504.32-104.96c-192 0-386.56 61.44-386.56 176.64 0 64 64 117.76 176.64 151.04 20.48 5.12 40.96-5.12 46.08-25.6 5.12-20.48-5.12-40.96-25.6-46.08-84.48-23.04-122.88-56.32-122.88-79.36 0-40.96 122.88-102.4 314.88-102.4 192 0 314.88 61.44 314.88 102.4 0 23.04-46.08 58.88-130.56 81.92-20.48 5.12-30.72 25.6-25.6 46.08 5.12 20.48 25.6 30.72 46.08 25.6 117.76-30.72 186.88-87.04 186.88-153.6-7.68-115.2-202.24-176.64-394.24-176.64z m0 0"  horiz-adv-x="1024" />

    
    <glyph glyph-name="shijian1" unicode="&#58975;" d="M511.98464 829.44c-118.97856 0-230.83008-46.35136-314.95168-130.4832C112.90624 614.84032 66.56 502.95808 66.56 384.00512c0-118.9632 46.34624-230.84544 130.47296-314.9568C281.15456-15.09376 393.00608-61.44 511.98464-61.44c118.98368 0 230.84032 46.34624 314.9824 130.48832C911.09376 153.15968 957.44 265.02144 957.44 384.00512c0 118.97856-46.34624 230.8352-130.47296 314.95168C742.82496 783.08864 630.96832 829.44 511.98464 829.44z m275.58912-721.02912c-73.61024-73.63584-171.47904-114.18624-275.58912-114.18624s-201.97376 40.5504-275.57888 114.18624c-73.63584 73.61024-114.16064 171.47904-114.16064 275.59424 0 104.11008 40.54528 201.97376 114.18112 275.58912 73.60512 73.63072 171.47392 114.176 275.584 114.176s201.97376-40.54528 275.584-114.176c73.63584-73.61536 114.18112-171.47904 114.18112-275.58912 0-104.1152-40.56576-201.984-114.2016-275.59424zM519.1168 340.20864V628.08064a27.8528 27.8528 0 0 1-27.84256 27.84768 27.8528 27.8528 0 0 1-27.84256-27.84768v-306.23232a27.81184 27.81184 0 0 1 16.88064-25.58976M734.70464 321.84832a31.0784 31.0784 0 0 0-31.07328-31.0784H496.44544a31.08864 31.08864 0 0 0-31.07328 31.0784 31.09376 31.09376 0 0 0 31.07328 31.0784h207.18592a31.08864 31.08864 0 0 0 31.07328-31.0784z"  horiz-adv-x="1024" />

    
    <glyph glyph-name="dianfei" unicode="&#58922;" d="M512 384m-480 0a480 480 0 1 1 960 0 480 480 0 1 1-960 0ZM512 697.6h-6.4c-115.2-6.4-211.2-102.4-211.2-217.6 0-57.6 19.2-108.8 57.6-147.2l12.8-12.8c25.6-32 38.4-38.4 38.4-76.8v-19.2h217.6v19.2c0 38.4 12.8 51.2 38.4 76.8l19.2 19.2c32 38.4 51.2 89.6 51.2 140.8 0 121.6-96 217.6-217.6 217.6M448 115.2c0-12.8 12.8-19.2 19.2-19.2h89.6c12.8 0 19.2 6.4 19.2 19.2 0 12.8-12.8 19.2-19.2 19.2H467.2c-12.8 0-19.2-6.4-19.2-19.2zM512 608c-70.4 0-128-57.6-128-128 0-12.8 12.8-19.2 19.2-19.2s19.2 12.8 19.2 19.2c0 44.8 38.4 89.6 89.6 89.6 12.8 0 19.2 12.8 19.2 19.2s-6.4 19.2-19.2 19.2zM403.2 179.2c0-12.8 12.8-19.2 19.2-19.2h172.8c12.8 0 19.2 6.4 19.2 19.2 0 12.8-12.8 19.2-19.2 19.2H422.4c-6.4 0-19.2-6.4-19.2-19.2z"  horiz-adv-x="1024" />

    
    <glyph glyph-name="ranqifei" unicode="&#58924;" d="M512 384m-480 0a480 480 0 1 1 960 0 480 480 0 1 1-960 0ZM601.6 422.4c-57.6 64-57.6 140.8-57.6 249.6-179.2-70.4-134.4-262.4-140.8-326.4-44.8 38.4-57.6 128-57.6 128C294.4 448 268.8 384 268.8 332.8c0-128 108.8-236.8 243.2-236.8s243.2 102.4 243.2 236.8c0 76.8-57.6 115.2-57.6 217.6-83.2-25.6-96-89.6-96-128zM505.6 358.4c83.2-32 64-121.6 64-147.2 19.2 19.2 25.6 57.6 25.6 57.6 19.2-12.8 32-38.4 32-64 0-57.6-51.2-108.8-108.8-108.8s-108.8 51.2-108.8 108.8c6.4 57.6 96 102.4 96 153.6z"  horiz-adv-x="1024" />

    
    <glyph glyph-name="shuifei" unicode="&#58925;" d="M512 384m-480 0a480 480 0 1 1 960 0 480 480 0 1 1-960 0ZM512 716.8c-96-102.4-262.4-236.8-262.4-384s115.2-262.4 262.4-262.4 262.4 115.2 262.4 262.4-160 281.6-262.4 384zM512 211.2c-57.6 0-102.4 44.8-102.4 108.8 0 57.6 64 102.4 102.4 147.2 38.4-44.8 102.4-89.6 102.4-147.2 0-57.6-44.8-108.8-102.4-108.8z"  horiz-adv-x="1024" />

    
    <glyph glyph-name="user__easyico" unicode="&#58880;" d="M512 384m-512 0a512 512 0 1 1 1024 0 512 512 0 1 1-1024 0ZM934.523586 94.878897C922.924138 207.713103 827.603862 295.724138 711.697655 295.724138h-104.977655A24.09931 24.09931 0 0 0 582.62069 319.823448v11.387586c0 10.292966 6.69131 19.102897 16.331034 22.722207 102.470621 38.523586 172.632276 206.636138 158.384552 325.437793C743.883034 791.499034 652.711724 881.858207 540.495448 894.411034a251.851034 251.851034 0 0 1-27.100689 1.553656l-0.847449 0.017655C375.790345 896.282483 264.827586 785.513931 264.827586 648.827586c0-106.354759 67.213241-260.502069 161.456552-295.353379 9.233655-3.407448 15.095172-12.588138 15.095172-22.439724v-11.211035c0-13.312-10.78731-24.09931-24.09931-24.09931h-104.977655c-115.906207 0-211.226483-88.011034-222.825931-200.845241C181.72469-39.688828 336.525241-128 512-128s330.27531 88.311172 422.523586 222.878897zM591.307034 779.29931c65.588966-18.025931 127.346759-58.368 166.894345-111.616-0.282483 3.901793-0.406069 7.891862-0.865103 11.70538C743.883034 791.499034 652.711724 881.858207 540.495448 894.411034a251.851034 251.851034 0 0 1-27.100689 1.553656l-0.847449 0.017655c-122.173793 0.264828-223.514483-88.187586-243.78262-204.499862h0.088276c3.160276-4.449103 6.249931-8.951172 9.622068-13.24138 1.235862 1.536 2.489379 3.054345 3.760552 4.555035 35.310345 42.01931 94.296276 51.74731 144.472276 29.501793a123.586207 123.586207 0 0 1 164.599172 67.001379zM934.523586 94.878897C922.924138 207.713103 827.586207 295.724138 711.697655 295.724138H688.551724l-105.931034-105.931035h-141.24138l-52.965517 35.310345-60.539586 70.62069h-15.571862c-115.888552 0-211.226483-88.011034-222.825931-200.845241C181.72469-39.688828 336.525241-128 512-128s330.27531 88.311172 422.523586 222.878897zM759.172414-64.300138c12.093793 6.69131 23.834483 13.929931 35.310345 21.53931V66.206897h-35.310345v-130.507035zM264.827586-64.300138V66.206897h-35.310345v-108.967725c11.475862-7.609379 23.216552-14.848 35.310345-21.53931zM459.034483 225.103448h105.931034v-105.931034h-105.931034zM440.690759-122.950621c23.304828-3.248552 47.104-5.049379 71.309241-5.049379 24.399448 0 48.357517 1.818483 71.838897 5.12L547.310345 119.172414h-70.62069l-35.998896-242.123035zM459.034483 210.97931L388.413793 295.724138h-85.733517a1.730207 1.730207 0 0 1-1.606621-2.365793L370.758621 119.172414l88.275862 58.844689V210.97931zM721.319724 295.724138H635.586207l-70.62069-84.744828v-32.962207L653.241379 119.172414l69.667311 174.185931a1.712552 1.712552 0 0 1-1.588966 2.365793z"  horiz-adv-x="1024" />

    
    <glyph glyph-name="zan1" unicode="&#58944;" d="M924.9 346.29999999999995c22.2 19.8 35.5 48.4 35.5 78.8 0 28.4-11.2 55-31.6 75-20.3 19.9-47.5 30.9-76.4 30.9H687.3c-14.9 0-30-0.8-44.6-1.6l-1.2-0.1h-0.2c-9.4-0.5-15.5 9.6-10.7 17.7 3.7 6.3 7.9 12.7 12.1 19.3 7.6 11.7 16.2 25 23 39 10.9 22.6 25.9 56.5 30.8 90.8 5.5 38.9-2.6 72.1-24.3 98.7-19.2 23.5-48.2 37-79.5 37-21.9 0-43.9-6.8-62.1-19.2-25.3-17.3-37.4-42.1-47.1-62.1v-0.1c-2.4-4.9-4.6-9.6-7-13.9-7.2-13-12.5-26.3-17.3-38-6-14.6-11.1-27.2-18.4-37.5-5.7-8-11.3-16.2-16.7-24.1l-0.9-1.4c-20.4-29.9-39.7-58.1-63.8-80.3l-4.9-4.6c-10.3-9.5-27.4-25.5-45.3-38.8-17.8-13.2-28.9-18.3-35.1-20.1-3.1-1-6.5-0.5-9.4 1.2-0.1 0.1-0.2 0.1-0.3 0.2l-0.6 0.4c-8.7 5.3-21.9 13.2-42.9 14.4h-0.2c-29.6 1.3-63.1-8.9-91.7-28.1-40.9-27.3-65.2-72.1-65.2-120v-239.3c0-44.7 25.7-93 65.4-122.9 22.5-17 47.4-26.4 72-27.2l3-0.1c22.2 0 38.3 7.8 50.1 13.6 4 1.9 8 4 11.4 5 23.4 7.4 49.5-3.2 81.2-17.8h0.1c25-11.5 53.3-24.6 86.1-28.7 34.1-4.3 70.9-6.3 115.7-6.3 26.4 0 53.1 0.7 78.9 1.3 25.1 0.7 51.1 1.3 76.6 1.3 58.8 0 106.6 47.5 106.6 105.9 0 5.8-0.5 11.6-1.4 17.3-0.9 5.3 1.9 10.5 6.8 12.6 12.6 5.5 24 13.5 33.8 23.6 19.1 19.8 29.6 45.8 29.6 73.2 0 9-1.1 17.9-3.4 26.5-1.2 4.8 0.6 9.9 4.7 12.6 28.6 19.4 46.8 52 46.8 87.7 0 12.2-2.1 24.1-6 35.3-1.8 4.7-0.5 9.7 3.1 12.9zM267.8 490.8z m-63.6-476.7h-1.8c-15.5 0.6-31.8 6.9-47 18.4-28.7 21.6-48 57-48 88V359.9c0 33.2 17.1 64.5 45.8 83.7 20.7 13.9 45.1 21.6 65.3 20.8 10-0.6 15.8-4.1 22.5-8.1l0.6-0.4c1.3-0.8 2.8-1.7 4.5-2.6v-424.7c-4.1-1.7-7.9-3.5-11.3-5.2-9.9-5-18.6-9.3-30.6-9.3z m675.7 354.4l-24.6-11.2c-0.2-0.1-0.2-0.3-0.1-0.4l16.3-21.5c8.2-10.8 12.5-23.6 12.5-37.1 0-27.7-18.9-52.4-45.9-59.9l-28.6-7.9c-0.2 0-0.3-0.3-0.2-0.4l15.8-23.9c6.6-10 10.5-21.7 10.7-33.7 0.5-33.7-26-61.4-59.8-63l-36.1-1.7c-0.2 0-0.3-0.2-0.2-0.4l18.5-31c5.7-9.6 8.7-20.5 8.7-31.6 0-34.3-28.2-62.2-62.8-62.2-26.1 0-52.3-0.7-77.7-1.3-25.5-0.7-51.9-1.3-77.8-1.3-43 0-78 1.9-110.3 5.9-26.1 3.3-49 13.8-73.3 25h-0.1c-26 12-50.4 22.2-75.2 24.1V451.1c29.4 10.2 62.3 38 94.2 67.6l4.8 4.5c27.8 25.6 48.4 55.8 70.3 87.7l0.9 1.3c5.3 7.8 10.9 15.9 16.3 23.6 10.2 14.4 16.8 30.6 23.2 46.3v0.1c4.5 11.1 9.2 22.5 15.1 33.3 2.9 5.3 5.5 10.7 8.1 15.9 8.2 16.9 16.7 34.4 32.3 45 11 7.5 24.3 11.6 37.5 11.6 18.1 0 34.7-7.6 45.6-20.9 31.7-38.9 10.3-96.8-12-142.9-5.6-11.6-13-23.1-20.2-34.2-13.8-21.3-28-43.2-31.3-67.7-1.6-12.1-0.8-21.1 2.5-27.5l7.1-13.8c0.1-0.1 0.2-0.2 0.3-0.1l20.3 3.1c13 0.1 26.2 0.8 38.9 1.5l1.2 0.1c14 0.8 28.4 1.6 42.1 1.6H852c35.4 0 64.2-27.9 64.2-62.2 0.4-24.1-14-46.3-36.3-56.5zM511.96415281932434 383.9688207699543c-0.0009380570644120979 0-0.0016974365927457003-0.0007593795283336025-0.0016974365927457003-0.0016974365927457003s0.0007593795283336025-0.0016974365927457003 0.0016974365927457003-0.0016974365927457003c0.0009380570644120979 0 0.0016974365927457003 0.0007593795283336025 0.0016974365927457003 0.0016974365927457003s-0.0007705468743385089 0.0016974365927457003-0.0016974365927457003 0.0016974365927457003zM191 130.79999999999995c-22.7 0-41.2-18.5-41.2-41.2 0-22.7 18.5-41.2 41.2-41.2 22.7 0 41.2 18.5 41.2 41.2-0.1 22.7-18.6 41.2-41.2 41.2z m0-56.3c-8.4 0-15.2 6.8-15.2 15.2s6.8 15.2 15.2 15.2c8.4 0 15.2-6.8 15.2-15.2s-6.9-15.2-15.2-15.2z"  horiz-adv-x="1024" />

    
    <glyph glyph-name="fangwu" unicode="&#59248;" d="M358.1 501.3c0-11.1-9.1-20.1-20.1-20.1H194c-11.1 0-20.1 9.1-20.1 20.1v208c0 11.1 9.1 20.1 20.1 20.1h144c11.1 0 20.1-9.1 20.1-20.1v-208zM173.9 694.9h106.2v-51.1H173.9zM251.9 616h106.2v-51.1H251.9zM136.9 487.6v-417.1h747.3V487.6L510.6 720.8zM510.6 720.8L136.9 487.6V403l373.7 233.2L884.2 403v84.6zM778 406.7h106.2v-51.1H778zM632.6 174.7h106.2v-51.1H632.6zM501.5 407.6h106.2v-51.1H501.5zM136.9 282.8h106.2v-51.1H136.9zM220.4 465.9h106.2v-51.1H220.4zM419.3 321.5h182.5v-251H419.3zM510.6 231.5m-35.7 0a35.7 35.7 0 1 1 71.4 0 35.7 35.7 0 1 1-71.4 0ZM510.6 533.9m-76 0a76 76 0 1 1 152 0 76 76 0 1 1-152 0ZM510.6 609.9c-42 0-76-34-76-76 0-4.6 0.4-9.1 1.2-13.4 6.3 35.6 37.4 62.6 74.8 62.6s68.5-27 74.8-62.6c0.8 4.4 1.2 8.8 1.2 13.4 0 42-34.1 76-76 76zM586.6 549h-60.9v60.9h-30.2V549h-60.9v-30.2h60.9v-60.9h30.2v60.9h60.9zM510.6 594.8c-33.6 0-60.9-27.3-60.9-60.9S477 473 510.6 473s60.9 27.3 60.9 60.9-27.3 60.9-60.9 60.9z m0-152c-50.2 0-91.1 40.9-91.1 91.1 0 50.2 40.9 91.1 91.1 91.1 50.2 0 91.1-40.9 91.1-91.1 0-50.2-40.9-91.1-91.1-91.1zM419.3 321.5h182.5v-31.7H419.3zM687.8 381.5h130.6v-147.6H687.8zM687.8 381.5h130.6V349H687.8zM687.8 322.8h130.6v-30.2H687.8zM702.9 249h100.4V366.4H702.9V249z m115.5-30.2H687.8c-8.3 0-15.1 6.8-15.1 15.1V381.5c0 8.3 6.8 15.1 15.1 15.1h130.6c8.3 0 15.1-6.8 15.1-15.1v-147.6c0-8.3-6.8-15.1-15.1-15.1zM958.7 25c0-5.5-4.5-9.9-9.9-9.9H72.3c-5.5 0-9.9 4.5-9.9 9.9v35.5c0 5.5 4.5 9.9 9.9 9.9h876.5c5.5 0 9.9-4.5 9.9-9.9V25zM361.8 70.5h297.4v-55.4H361.8zM919.7 433.7c-5.8 0-11.7 1.6-17 4.9L510.6 682.8 118.4 438.5c-15.1-9.4-35-4.8-44.4 10.3-9.4 15.1-4.8 35 10.3 44.4l409.2 254.9c10.4 6.5 23.6 6.5 34.1 0l409.2-254.9c15.1-9.4 19.7-29.3 10.3-44.4-6.1-9.7-16.6-15.1-27.4-15.1zM927.8 70.5c0 66.1-53.6 119.6-119.6 119.6-66.1 0-119.6-53.6-119.6-119.6h239.2zM93.3 70.5c0 66.1 53.6 119.6 119.6 119.6s119.6-53.6 119.6-119.6H93.3zM209.8 383.5h130.6v-147.6H209.8zM209.8 383.5h130.6V351H209.8zM209.8 324.8h130.6v-30.2H209.8zM224.9 251h100.4V368.4H224.9V251z m115.5-30.2H209.8c-8.3 0-15.1 6.8-15.1 15.1V383.5c0 8.3 6.8 15.1 15.1 15.1h130.6c8.3 0 15.1-6.8 15.1-15.1v-147.6c0-8.3-6.8-15.1-15.1-15.1z"  horiz-adv-x="1024" />

    
    <glyph glyph-name="home" unicode="&#59015;" d="M855.04 80.64c0-17.92-16.64-32-38.4-32H226.56c-20.48 0-38.4 14.08-38.4 32V524.8c0 17.92 16.64 32 38.4 32h590.08c20.48 0 38.4-14.08 38.4-32v-444.16zM816.64 35.84H226.56c-28.16 0-51.2 20.48-51.2 44.8V524.8c0 24.32 23.04 44.8 51.2 44.8h590.08c28.16 0 51.2-20.48 51.2-44.8v-444.16c0-24.32-23.04-44.8-51.2-44.8zM226.56 544c-14.08 0-25.6-8.96-25.6-19.2v-444.16c0-10.24 11.52-19.2 25.6-19.2h590.08c14.08 0 25.6 8.96 25.6 19.2V524.8c0 10.24-11.52 19.2-25.6 19.2H226.56zM917.76 446.72c0-21.76-14.08-39.68-32-39.68L520.96 567.04 156.16 407.04c-17.92 0-32 17.92-32 39.68v56.32c0 21.76 14.08 39.68 32 39.68l364.8 184.32 364.8-184.32c17.92 0 32-17.92 32-39.68v-56.32zM885.76 394.24c-1.28 0-3.84 0-5.12 1.28L520.96 552.96 161.28 395.52c-1.28-1.28-3.84-1.28-5.12-1.28-24.32 0-44.8 23.04-44.8 52.48v56.32c0 28.16 17.92 51.2 40.96 52.48l362.24 183.04c3.84 1.28 7.68 1.28 11.52 0l362.24-183.04c23.04-2.56 40.96-24.32 40.96-52.48v-56.32c1.28-28.16-17.92-52.48-43.52-52.48zM520.96 712.96l-358.4-181.76c-1.28-1.28-3.84-1.28-5.12-1.28-10.24 0-19.2-12.8-19.2-26.88v-56.32c0-14.08 7.68-25.6 16.64-26.88l362.24 158.72c3.84 1.28 6.4 1.28 10.24 0l362.24-158.72c8.96 1.28 16.64 12.8 16.64 26.88v56.32c0 15.36-8.96 26.88-19.2 26.88-2.56 0-3.84 0-6.4 1.28L520.96 712.96zM623.36 47.36H445.44V261.12c0 17.92 15.36 30.72 33.28 30.72h111.36c17.92 0 33.28-12.8 33.28-30.72v-213.76zM623.36 34.56H445.44c-7.68 0-12.8 5.12-12.8 12.8V261.12c0 24.32 19.2 43.52 46.08 43.52h111.36c25.6 0 46.08-17.92 46.08-43.52v-212.48c0-7.68-5.12-14.08-12.8-14.08z m-165.12 25.6h152.32V261.12c0 11.52-10.24 17.92-20.48 17.92h-111.36c-10.24 0-20.48-5.12-20.48-17.92v-200.96z"  horiz-adv-x="1024" />

    
    <glyph glyph-name="repair" unicode="&#58977;" d="M934.912 199.67999999999995l-141.824 141.824A388.608 388.608 0 0 1 265.216 823.808 38.4 38.4 0 0 1 256 761.856l184.32-186.368L320.512 455.68 134.144 640a38.4 38.4 0 0 1-61.952-11.264 388.608 388.608 0 0 1 482.816-527.872l141.824-141.824a168.448 168.448 0 0 1 238.08 240.64z m-54.272-184.32a94.208 94.208 0 0 0-129.536 0l-159.232 159.232a38.4 38.4 0 0 1-42.496 8.192 311.808 311.808 0 0 0-425.984 361.472l169.984-169.984a39.424 39.424 0 0 1 54.272 0l174.08 174.08a38.4 38.4 0 0 1 0 54.272L351.744 772.608a311.808 311.808 0 0 0 361.472-425.984 38.4 38.4 0 0 1 8.192-42.496l159.232-159.232a92.16 92.16 0 0 0 0-129.536z"  horiz-adv-x="1024" />

    
    <glyph glyph-name="yonghu" unicode="&#58901;" d="M977.92 39.424V99.84c0 123.904-219.648 157.696-219.648 157.696h-443.392S92.16 223.744 92.16 99.84v-60.416s-0.512-45.568 71.168-47.104c71.68-1.536 373.76 0 373.76 0s300.544-1.536 372.224 0 68.608 47.104 68.608 47.104zM614.4 266.24h-76.288l-223.232-4.608S92.16 223.232 92.16 99.328v-60.416s-0.512-45.568 71.168-47.104c71.68-1.536 72.192 1.024 72.192 1.024L453.632 158.72H614.4V266.24zM404.48 394.24h266.24v-163.84h-266.24zM785.408 627.712S819.2 524.288 727.04 462.336v185.344l58.368-19.968zM274.432 627.712S256 524.288 332.8 462.336v185.344l-58.368-19.968zM332.8 646.656v-188.928s45.056-162.816 205.824-162.816S742.4 460.8 742.4 460.8v172.544s10.24 245.76-203.776 245.76S332.8 646.656 332.8 646.656zM537.6 294.912c-158.72 0-204.8 162.816-204.8 162.816v188.928s-10.24 232.96 204.8 232.96V294.912zM450.048 745.984S484.352 609.28 801.792 609.28c0 0-5.12 273.408-263.168 273.408s-266.24-273.408-266.24-273.408 108.032 29.184 177.664 136.704zM399.872 346.624l-84.48-88.064 138.24-102.4L541.184 225.28zM673.28 346.624L757.76 258.56l-137.728-102.4L531.968 225.28z"  horiz-adv-x="1024" />

    
    <glyph glyph-name="apptubiao-" unicode="&#59024;" d="M512 825.6c243.2 0 441.6-198.4 441.6-441.6s-198.4-441.6-441.6-441.6S70.4 140.79999999999995 70.4 384 268.8 825.6 512 825.6M512 896C230.4 896 0 665.6 0 384s230.4-512 512-512 512 230.4 512 512-230.4 512-512 512zM326.4 595.2c-32 0-57.6-25.6-57.6-57.6s25.6-57.6 57.6-57.6 57.6 25.6 57.6 57.6-25.6 57.6-57.6 57.6z m371.2 0c-32 0-57.6-25.6-57.6-57.6s25.6-57.6 57.6-57.6 57.6 25.6 57.6 57.6c6.4 32-25.6 57.6-57.6 57.6z m70.4-409.6c-70.4 76.8-160 121.6-256 121.6-102.4 0-192-44.8-256-121.6l51.2-44.8c51.2 57.6 128 96 204.8 96 76.8 0 147.2-32 204.8-96l51.2 44.8z m0 0"  horiz-adv-x="1024" />

    
    <glyph glyph-name="luntanzixun" unicode="&#58899;" d="M51.2 1.706667a257.706667 30.72 0 1 1 515.413333 0 257.706667 30.72 0 1 1-515.413333 0ZM581.973333-37.546667a143.36 22.186667 0 1 1 286.72 0 143.36 22.186667 0 1 1-286.72 0ZM568.32 482.986667H201.386667c-11.946667 0-22.186667-8.533333-22.186667-18.773334 0-10.24 10.24-18.773333 22.186667-18.773333h366.933333c11.946667 0 22.186667 8.533333 22.186667 18.773333 0 10.24-10.24 18.773333-22.186667 18.773334zM935.253333 416.426667l-360.106666-10.24c-22.186667 0-40.96-18.773333-40.96-40.96v-238.933334c0-22.186667 18.773333-40.96 40.96-40.96h134.826666l3.413334-30.72 34.133333-15.36c6.826667-3.413333 18.773333-1.706667 23.893333 5.12l40.96 40.96h116.053334c22.186667 0 51.2 18.773333 51.2 40.96v238.933334c1.706667 22.186667-22.186667 51.2-44.373334 51.2zM904.533333 416.426667H530.773333c-22.186667 0-40.96-18.773333-40.96-40.96v-235.52c0-22.186667 18.773333-40.96 40.96-40.96H665.6l40.96-40.96c5.12-5.12 15.36-5.12 20.48 0l40.96 40.96h136.533333c22.186667 0 40.96 18.773333 40.96 40.96V375.466667c-1.706667 22.186667-18.773333 40.96-40.96 40.96zM675.84 708.266667l-515.413333-13.653334c-32.426667 0-58.026667-25.6-58.026667-58.026666V298.666667c0-32.426667 25.6-58.026667 58.026667-58.026667h194.56l18.773333-46.08 27.306667-13.653333c15.36-6.826667 35.84-3.413333 47.786666 8.533333l51.2 52.906667h194.56c32.426667 0 58.026667 25.6 58.026667 58.026666V636.586667c0 32.426667-44.373333 71.68-76.8 71.68zM643.413333 708.266667H109.226667C76.8 708.266667 51.2 682.666667 51.2 650.24v-337.92c0-32.426667 25.6-58.026667 58.026667-58.026667h194.56l51.2-52.906666c11.946667-11.946667 30.72-11.946667 42.666666 0l51.2 52.906666h194.56c32.426667 0 58.026667 25.6 58.026667 58.026667V650.24c0 32.426667-25.6 58.026667-58.026667 58.026667zM143.36 532.48c3.413333 20.48 23.893333 37.546667 46.08 37.546667h172.373333c20.48 0 39.253333-17.066667 39.253334-37.546667 0-20.48-17.066667-37.546667-37.546667-37.546667h-187.733333c-22.186667-1.706667-37.546667 15.36-32.426667 37.546667zM143.36 431.786667c3.413333 17.066667 18.773333 30.72 35.84 30.72h305.493333c17.066667 0 32.426667-13.653333 34.133334-30.72v-8.533334c1.706667-20.48-13.653333-37.546667-34.133334-37.546666H174.08c-20.48 0-35.84 17.066667-30.72 37.546666v8.533334zM141.653333 570.026667h180.906667c17.066667 0 30.72-13.653333 30.72-30.72s-13.653333-30.72-30.72-30.72H141.653333c-17.066667 0-30.72 13.653333-30.72 30.72s15.36 30.72 30.72 30.72zM141.653333 462.506667H443.733333c17.066667 0 30.72-13.653333 30.72-30.72S460.8 401.066667 443.733333 401.066667H141.653333c-17.066667 0-30.72 13.653333-30.72 30.72s15.36 30.72 30.72 30.72zM819.2 716.8a76.8 76.8 0 1 1 153.6 0 76.8 76.8 0 1 1-153.6 0ZM785.066667 716.8a76.8 76.8 0 1 1 153.6 0 76.8 76.8 0 1 1-153.6 0Z"  horiz-adv-x="1024" />

    
    <glyph glyph-name="gerenziliao" unicode="&#58918;" d="M714.752-56.32L620.544 15.36H110.592c-61.44 0-110.592 49.152-110.592 110.592V621.568C0 683.008 49.152 732.16 110.592 732.16h802.816c61.44 0 110.592-49.152 110.592-110.592v-495.616c0-61.44-49.152-110.592-110.592-110.592h-108.544v61.44h108.544c26.624 0 49.152 22.528 49.152 49.152V621.568c0 26.624-22.528 49.152-49.152 49.152H110.592C83.968 670.72 61.44 648.192 61.44 621.568v-495.616C61.44 99.328 83.968 76.8 110.592 76.8h530.432l110.592-83.968-36.864-49.152zM163.84 629.76h266.24c34.816 0 61.44-26.624 61.44-61.44v-389.12c0-34.816-26.624-61.44-61.44-61.44H163.84c-34.816 0-61.44 26.624-61.44 61.44V568.32c0 34.816 26.624 61.44 61.44 61.44zM727.04 445.44h-165.888c-16.384 0-30.72 14.336-30.72 30.72s14.336 30.72 30.72 30.72h165.888c16.384 0 30.72-14.336 30.72-30.72s-12.288-30.72-30.72-30.72zM851.968 343.04H540.672c-12.288 0-20.48 8.192-20.48 20.48s8.192 20.48 20.48 20.48h309.248c12.288 0 20.48-8.192 20.48-20.48 2.048-12.288-8.192-20.48-18.432-20.48zM851.968 240.64H540.672c-12.288 0-20.48 8.192-20.48 20.48s8.192 20.48 20.48 20.48h309.248c12.288 0 20.48-8.192 20.48-20.48s-8.192-20.48-18.432-20.48zM235.52 424.96c-16.384 0-30.72 14.336-30.72 30.72s14.336 30.72 30.72 30.72 30.72-14.336 30.72-30.72-14.336-30.72-30.72-30.72z m143.36 0c-16.384 0-30.72 14.336-30.72 30.72s14.336 30.72 30.72 30.72 30.72-14.336 30.72-30.72-14.336-30.72-30.72-30.72zM245.76 343.04c0 12.288 8.192 20.48 20.48 20.48s20.48-8.192 20.48-20.48 8.192-20.48 20.48-20.48 20.48 8.192 20.48 20.48 8.192 20.48 20.48 20.48 20.48-8.192 20.48-20.48c0-34.816-26.624-61.44-61.44-61.44s-61.44 26.624-61.44 61.44z"  horiz-adv-x="1024" />

    
    <glyph glyph-name="tianqi" unicode="&#58894;" d="M814.8 293.2L783 325c-3.7 3.7-3.7 9.9 0 13.6 3.7 3.7 9.9 3.7 13.6 0l31.8-31.8c3.7-3.7 3.7-9.9 0-13.6-3.7-3.8-9.9-3.8-13.6 0zM674.3 438.6m-138.2 0a138.2 138.2 0 1 1 276.4 0 138.2 138.2 0 1 1-276.4 0ZM656.6 316.5c-78.8 0-143 64.1-143 143s64.1 143 143 143c41.2 0 61-12.6 72.9-20.2l1.2-0.8c4.5-2.8 5.8-8.8 3-13.3-2.9-4.5-8.8-5.8-13.3-3l-1.2 0.8c-11.4 7.2-27 17.2-62.5 17.2-68.2 0-123.7-55.5-123.7-123.7s55.5-123.7 123.7-123.7 123.7 55.5 123.7 123.7c0 39.8-17.4 65.8-30.5 81.8-3.4 4.1-2.8 10.2 1.4 13.6 4.1 3.4 10.2 2.8 13.6-1.4 8.6-10.6 34.9-42.7 34.9-94-0.2-78.8-64.4-143-143.2-143zM886.4 449.9h-45c-5.3 0-9.6 4.3-9.6 9.6s4.3 9.6 9.6 9.6h45c5.3 0 9.6-4.3 9.6-9.6s-4.3-9.6-9.6-9.6zM832 616.4l-31.8-31.8c-3.7-3.7-9.9-3.7-13.6 0-3.7 3.7-3.7 9.9 0 13.6l31.8 31.8c3.7 3.7 9.9 3.7 13.6 0 3.8-3.7 3.8-9.9 0-13.6zM675.9 695.7v-45c0-5.3-4.3-9.6-9.6-9.6s-9.6 4.3-9.6 9.6v45c0 5.3 4.3 9.6 9.6 9.6 5.2 0 9.6-4.3 9.6-9.6zM509.4 641.4l31.8-31.8c3.7-3.7 3.7-9.9 0-13.6-3.7-3.7-9.9-3.7-13.6 0l-31.8 31.8c-3.7 3.7-3.7 9.9 0 13.6 3.7 3.7 9.8 3.7 13.6 0zM688.2 343.2c-1.4 0-2.7-0.1-4.1-0.1-0.7 0-1.3 0.1-2 0.1h-65.5c-10.4 77.5-76.8 137.2-157.1 137.2-78.3 0-143.4-56.8-156.2-131.5-74.6-5.1-133.5-67.1-133.5-143 0-79.2 64.2-143.3 143.3-143.3 3 0 6.1 0.1 9.1 0.3 2-0.2 4.1-0.3 6.2-0.3h353.8c0.7 0 1.3 0.1 2 0.1 1.4 0 2.7-0.1 4.1-0.1 77.5 0 140.3 62.8 140.3 140.3-0.1 77.5-62.9 140.3-140.4 140.3zM656.1 72.3c-1.1 0-2.2 0-3.2 0.1h-1.1c-0.5-0.1-1.1-0.1-1.8-0.1H422c-5.3 0-9.6 4.3-9.6 9.6s4.3 9.6 9.6 9.6l231.5 0.1c0.9 0 1.7-0.1 2.6-0.1 72 0 130.7 58.6 130.7 130.7 0 72-58.6 130.6-130.7 130.6-0.9 0-1.7 0-2.6-0.1h-1.2l-1.8 0.1h-74.4l-1.1 8.4c-9.9 73.5-73.3 128.9-147.6 128.9-72.7 0-134.4-51.9-146.7-123.5l-1.3-7.5-7.6-0.5c-69.8-4.7-124.5-63.3-124.5-133.3 0-73.6 59.8-133.6 133.5-133.7 0.7 0.1 1.4 0.2 2.3 0.3 5.5 0.4 9.9-3.7 10.2-9 0.3-5.3-3.6-9.8-8.9-10.2-1-0.2-2.1-0.3-3.4-0.3-84.4 0-153 68.6-153 153 0 77.6 58.7 143 135 151.9 16.7 77.1 84.7 132.2 164.3 132.2 81 0 150.6-58.4 165.3-137.2H650c0.6 0 1.2 0 1.8-0.1h1.1c1.1 0 2.2 0.1 3.2 0.1 82.7 0 149.9-67.3 149.9-149.9s-67.2-150.1-149.9-150.1zM344.9 72.3h-16.5c-5.3 0-9.6 4.3-9.6 9.6s4.3 9.6 9.6 9.6h16.5c5.3 0 9.6-4.3 9.6-9.6s-4.3-9.6-9.6-9.6z"  horiz-adv-x="1024" />

    
    <glyph glyph-name="icon-test" unicode="&#58949;" d="M470.4 748c11-12.6 220.7-251.3 220.7-422.4S592.2 16 470.4 16c-121.9 0-220.7 138.7-220.7 309.7S459.3 735.5 470.4 748zM470.4 13c-59.9 0-116.2 32.7-158.5 92-42 59-65.2 137.4-65.2 220.7C246.7 493 445.4 724.2 468.1 750l2.3 2.6 2.3-2.6c22.7-25.8 221.4-257 221.4-424.3 0-83.3-23.2-161.7-65.2-220.7-42.3-59.4-98.6-92-158.5-92z m0 730.5c-31-35.7-217.7-257.2-217.7-417.8 0-169.1 97.7-306.7 217.7-306.7 120 0 217.7 137.6 217.7 306.7 0 160.6-186.7 382.1-217.7 417.8zM476.5 741l83.2 7c11-12.6 220.7-251.3 220.7-422.4S681.5 16 559.6 16h-89.3C592.2 16 691 154.7 691 325.7S487.5 728.5 476.5 741zM559.6 13h-89.2v6c120 0 217.7 137.6 217.7 306.7 0 165.1-192 388.4-213.8 413.3l-3.9 4.5 5.9 0.5 84.7 7.1 1-1.1c22.7-25.8 221.4-257 221.4-424.3 0-83.3-23.2-161.7-65.2-220.7-42.4-59.4-98.6-92-158.6-92z m-45.2 6h45.2c120 0 217.7 137.6 217.7 306.7 0 163-192.2 388.6-219 419.2l-75.8-6.4C517.3 698.2 694 485.6 694 325.6c0-83.3-23.2-161.7-65.2-220.7-31.7-44.5-71.3-74-114.4-85.9zM449.7 511.6H539l-19.2-138.1h-89.3zM521.1 372h-92.3l19.6 141.1h92.3L521.1 372z m-88.8 3h86.2l18.8 135.1H451L432.3 375zM526.5 373.5S402.7 152 400.2 152c-2.6 0 20.8 138.6 20.8 138.6h-96s121.9 221 124.7 221c2.8 0-19.2-138.1-19.2-138.1h96zM400.2 150.5h-0.7l-0.5 0.6c-0.8 0.9-1.7 2.1 9.3 71.4 4.7 29.6 9.7 59.2 10.9 66.6h-96.7l1.2 2.2c0.3 0.6 30.8 55.9 61.3 110.5 17.9 32.1 32.3 57.6 42.8 76 20.1 35.3 20.7 35.3 22 35.3h0.7l0.5-0.6c0.8-0.9 1.9-2.2-8.4-71.2-4.4-29.4-9.1-59-10.2-66.3h96.8l-1.2-2.2c-0.3-0.6-31.3-56-62.2-110.8-18.2-32.2-32.7-57.8-43.3-76.2-20.6-35.3-21.1-35.3-22.3-35.3z m-72.7 141.6h95.2l-0.3-1.7c-7.9-47-19-115.7-20.7-133.6 15 23.9 90.5 158.5 122.3 215.3h-95.2l0.3 1.7c7.5 47 17.9 116 19.3 133.4C433.8 484 358.9 349 327.5 292.1zM526.5 373.5h89.2L491 152.5h-89.2zM491.9 151l-92.4-0.5L525.6 375h92.7L491.9 151z m-87.6 3h85.8l123 218h-85.8l-123-218z"  horiz-adv-x="1024" />

    
    <glyph glyph-name="dianhua1" unicode="&#58888;" d="M217.622 274.551c-28.096 0-55.079 7.097-78.031 20.525-24.957 14.6-44 35.954-55.069 61.754-15.311 35.685-13.624 77.262 4.627 114.072 17.233 34.756 47.426 62.78 85.018 78.909 22.069 9.469 45.122 14.27 68.521 14.27 28.096 0 55.079-7.098 78.032-20.526 24.958-14.601 44-35.955 55.07-61.755 15.311-35.685 13.624-77.263-4.627-114.071-17.233-34.757-47.427-62.78-85.019-78.908-22.069-9.469-45.123-14.27-68.522-14.27zM732.893 484.918c-44.97 0-87.384 12.283-122.655 35.521-37.68 24.825-63.877 59.897-75.76 101.424-7.541 26.355-8.805 53.58-3.757 80.92 4.752 25.732 14.874 50.367 30.085 73.222 30.158 45.313 77.352 79.003 132.89 94.864 22.47 6.417 45.489 9.671 68.419 9.671 44.971 0 87.384-12.283 122.655-35.521 37.68-24.826 63.877-59.898 75.76-101.425 7.54-26.353 8.804-53.578 3.756-80.917-4.751-25.731-14.873-50.367-30.084-73.222-30.158-45.314-77.352-79.004-132.89-94.865-22.47-6.418-45.489-9.672-68.419-9.672zM376.702-110.302c-66.661 0-120.893 54.284-120.893 121.008V167.295c0 63.885 49.718 116.366 112.458 120.716v27.058c0 48.546 39.467 88.041 87.979 88.041h9.814c48.512 0 87.98-39.495 87.98-88.041v-26.767h10.878v26.767c0 48.546 39.467 88.041 87.98 88.041h9.815c48.511 0 87.979-39.495 87.979-88.041v-27.063c62.706-4.384 112.383-56.85 112.383-120.711v-156.589c0-66.724-54.233-121.008-120.893-121.008h-365.48zM303.015 32.674c-32.544 0.003-57.195 17.162-74.306 35.642-17.374 2.388-34.265 9.034-49.525 19.567-22.699 15.669-37.773 37.892-43.679 63.454-14.756 11.469-29.264 29.492-39.631 57.747-4.909 13.381-7.034 27.134-6.37 40.754-5.994 9.941-10.131 21.045-12.232 32.998-5.081 28.905 0.978 56.552 17.522 79.952 13.464 19.044 30.604 30.216 36.236 33.887l36.286 23.652 51.366-64.169c21.878-4.389 39.623-18.271 48.063-38.385 4.659-11.102 6.688-21.328 7.062-30.48l142.129-177.556-25.763-30.037-0.429-0.508c-32.384-38.445-65.033-46.517-86.721-46.517l-0.008-0.001z m-15.454 117.534zM742.181-62.551H376.702c-40.395 0-73.142 32.798-73.142 73.256v156.59c0 40.458 32.747 73.256 73.142 73.256h39.316v74.517c0 22.251 18.011 40.29 40.228 40.29h9.814c22.217 0 40.228-18.039 40.228-40.29v-74.517h106.381v74.517c0 22.251 18.011 40.29 40.228 40.29h9.815c22.217 0 40.228-18.039 40.228-40.29v-74.517h39.241c40.395 0 73.142-32.798 73.142-73.256v-156.589c0-40.459-32.747-73.257-73.142-73.257zM181.807 370.249c-43.723 0-77.149 17.923-91.708 49.174-15.54 33.354-6.61 73.609 0.097 94.635 5.227 16.389 20.796 56.741 52.393 77.416 4.392 2.874 12.186 8.46 22.054 15.532 44.641 31.994 137.532 98.569 251.376 153.91C543.045 822.671 678.858 867.339 684.578 869.21l3.977 1.301 4.143 0.589a125.716 125.716 0 0 0 17.647 1.225c58.528 0 130.672-41.006 139.618-95.884 5.301-32.515-13.954-61.808-30.942-87.653-2.379-3.618-5.348-8.135-7.95-12.304a47.912 47.912 0 0 0 1.77-19.537c-0.946-8.189-5.011-23.636-21.607-35.071-2.384-1.643-5.006-3.212-8.252-4.936-4.424-2.352-10.197-5.075-17.155-8.095-10.404-4.516-28.445-11.858-55.305-21.194-40.49-14.074-106.581-34.573-191.497-52.315-135.486-28.306-253.454-140.412-254.63-141.541l-5.722-5.495-7.191-3.349c-20.06-9.343-45.455-14.702-69.675-14.702zM168.734 551.516c27.605 18.063 132.145 100.334 268.161 166.455C562.452 779.01 699.426 823.827 699.426 823.827c43.096 6.134 98.764-26.586 103.407-55.067 5.098-31.272-66.321-92.709-37.58-106.098 4.681-2.181-98.345-47.646-255.996-80.583C358.786 550.64 231.32 428.237 231.32 428.237c-28.742-13.387-84.558-17.367-97.937 11.352-13.38 28.719 7.746 93.865 35.351 111.927zM912.48 730.147C890.005 808.695 796.963 851.003 704.667 824.644 612.37 798.285 555.769 713.241 578.245 634.69c22.476-78.548 115.517-120.855 207.813-94.496 92.297 26.359 148.897 111.405 126.422 189.953z m-721.626-224.53c-56.196-24.111-85.114-82.434-64.591-130.27 20.523-47.833 82.716-67.065 138.912-42.954 56.195 24.109 85.114 82.432 64.591 130.268-20.523 47.834-82.716 67.068-138.912 42.956zM747.584 718.441c0 11.192-8.692 20.265-19.414 20.265-10.722 0-19.414-9.073-19.414-20.265s8.692-20.264 19.414-20.264c10.723 0 19.414 9.072 19.414 20.264z m-71.88-60.316c-10.92 0-19.772-8.973-19.772-20.041s8.852-20.041 19.772-20.041c10.92 0 19.772 8.972 19.772 20.041s-8.852 20.041-19.772 20.041z m143.433 40.052c-10.854 0-19.652-8.966-19.652-20.026s8.799-20.026 19.652-20.026c10.854 0 19.653 8.966 19.653 20.026-0.001 11.06-8.8 20.026-19.653 20.026z m-65.017-80.133c-10.796 0-19.548-9.066-19.548-20.249 0-11.184 8.752-20.25 19.548-20.25 10.796 0 19.548 9.066 19.548 20.25 0.001 11.183-8.751 20.249-19.548 20.249zM217.11 462.211c-6.724-0.858-11.48-7.014-10.623-13.75 0.858-6.736 7.005-11.501 13.729-10.64 6.725 0.858 11.481 7.014 10.624 13.75-0.858 6.736-7.005 11.501-13.73 10.64z m-26.258-52.928c-6.725-0.86-11.481-7.016-10.624-13.752 0.858-6.733 7.005-11.498 13.729-10.64 6.724 0.86 11.481 7.016 10.623 13.752-0.857 6.736-7.003 11.499-13.728 10.64z m86.313 35.812c-6.795-0.867-11.608-7.03-10.75-13.766 0.858-6.735 7.061-11.491 13.856-10.624 6.794 0.869 11.608 7.032 10.75 13.768-0.858 6.735-7.061 11.491-13.856 10.622z m-34.502-53.981c-6.725-0.858-11.481-7.017-10.624-13.75 0.858-6.736 7.004-11.501 13.73-10.64 6.724 0.859 11.48 7.014 10.623 13.75-0.858 6.736-7.005 11.498-13.729 10.64zM558.785 202.698c65.708 0 118.975-53.194 118.975-118.811s-53.267-118.811-118.975-118.811S439.81 18.27 439.81 83.887c0 65.618 53.267 118.811 118.975 118.811zM562.762 176.644c-9.024 0-16.34-7.376-16.34-16.474 0-9.098 7.316-16.474 16.34-16.474 9.024 0 16.34 7.376 16.34 16.474 0 9.098-7.316 16.474-16.34 16.474z m-8.237-155.878c-9.024 0-16.34-7.329-16.34-16.37 0-9.04 7.315-16.369 16.34-16.369 9.024 0 16.34 7.329 16.34 16.369 0 9.041-7.316 16.37-16.34 16.37z m82.042 73.925c-9.024 0-16.34-7.376-16.34-16.474 0-9.098 7.316-16.474 16.34-16.474 9.024 0 16.34 7.376 16.34 16.474 0 9.098-7.315 16.474-16.34 16.474z m-139.299-16.474c0 9.098-7.369 16.474-16.459 16.474s-16.459-7.376-16.459-16.474c0-9.098 7.369-16.474 16.459-16.474s16.459 7.375 16.459 16.474z m106.069-42.207c-6.22-6.581-5.923-16.956 0.662-23.173 6.586-6.216 16.967-5.92 23.187 0.664 6.22 6.581 5.923 16.955-0.662 23.171-6.586 6.215-16.967 5.919-23.187-0.662z m-89.431 92.612c6.22 6.581 5.923 16.955-0.662 23.173-6.585 6.216-16.966 5.92-23.186-0.662-6.22-6.583-5.923-16.957 0.662-23.173 6.585-6.215 16.966-5.919 23.186 0.662z m-21.659-85.752c-6.398-6.408-6.385-16.787 0.028-23.182 6.413-6.393 16.798-6.379 23.196 0.029 6.398 6.41 6.385 16.789-0.028 23.182-6.413 6.395-16.799 6.381-23.196-0.029z m141.47 78.899c6.397 6.411 6.385 16.79-0.028 23.182-6.414 6.395-16.798 6.382-23.196-0.029-6.398-6.408-6.385-16.787 0.028-23.182 6.413-6.392 16.798-6.379 23.196 0.029zM558.785 128.982c24.864 0 45.02-20.19 45.02-45.095 0-24.905-20.156-45.095-45.02-45.095-24.864 0-45.02 20.19-45.02 45.095 0 24.906 20.156 45.095 45.02 45.095z"  horiz-adv-x="1024" />

    
    <glyph glyph-name="techreport-" unicode="&#58926;" d="M138.52 21.87c-40.3 14.22-67.37 51.84-67.37 93.63V706.78c0 54.86 45.59 99.48 101.63 99.48H630.5c43.62 0 82.33-27.26 96.33-67.84l-23.63-8.16c-10.53 30.5-39.74 51-72.7 51H172.78c-42.25 0-76.63-33.41-76.63-74.48V115.5c0-31.21 20.37-59.36 50.69-70.06zM574.78 618.08H136.89a12.5 12.5 0 0 0 0 25h437.89a12.5 12.5 0 0 0 0-25zM422.41 184.34H136.89a12.5 12.5 0 0 0 0 25h285.52a12.5 12.5 0 0 0 0-25zM443.3 401.21H136.89a12.5 12.5 0 0 0 0 25H443.3a12.5 12.5 0 0 0 0-25zM774 652.5v-591.28c0-47.84-40.11-87-89.13-87H227.2c-39.16 0-72.63 25-84.52 59.42a90.17 90.17 0 0 1 30.1-5.14H630.5c49 0 89.13 39.14 89.13 87V706.78a84.35 84.35 0 0 1-4.63 27.56c34.35-12.11 59-44.34 59-81.84zM684.92-38.26H227.2c-43.62 0-82.33 27.26-96.33 67.84l-8.46 24.5 24.44-8.64a77.61 77.61 0 0 1 25.93-4.44H630.5c42.25 0 76.63 33.41 76.63 74.48v591.3a71.86 71.86 0 0 1-3.93 23.49l-8.45 24.48 24.42-8.62c40.3-14.22 67.37-51.84 67.37-93.63v-591.28c0.01-54.86-45.54-99.48-101.62-99.48z m-518.74 54.49a77.31 77.31 0 0 1 61-29.49h457.74c42.25 0 76.63 33.41 76.63 74.48V652.5A74 74 0 0 1 732 711.14q0.1-2.17 0.1-4.35V115.5c0-54.85-45.59-99.48-101.63-99.48H172.78q-3.31-0.02-6.6 0.21zM735.61 294.59L574.31 217l-20.86 177.77L731 717.69l20.45 37.19c13.31 24.2 42.21 34.08 64.24 22l102.11-56.17c22-12.11 29.16-41.82 15.85-66zM563.93 198.13l-23.37 199.16 200 363.61a64.9 64.9 0 0 0 35.76 30.4c15.54 5.31 31.68 4.07 45.46-3.5l102.07-56.14c28.12-15.47 37.44-52.7 20.78-83l-200-363.61z m2.39 194.12l18.35-156.4 141.91 68.27 196.12 356.6c10 18.22 5.12 40.22-10.92 49L809.7 765.89c-7.53 4.14-16.52 4.77-25.32 1.76a40 40 0 0 1-21.94-18.8zM913.2 617.51L731.03 717.69M725.022 706.725l12.048 21.906 182.167-100.189-12.048-21.905z"  horiz-adv-x="1024" />

    
    <glyph glyph-name="bangdingyinhangqia" unicode="&#58891;" d="M677 767.8c0 8.9-7.2 16.1-16.1 16.1H212.6c-8.9 0-16.1-7.2-16.1-16.1v-72.5l480.5 1.4v71.1zM196.5 0.4c0-8.9 7.2-16.1 16.1-16.1h448.3c8.9 0 16.1 7.2 16.1 16.1v75.2l-480.5-1.4v-73.8zM677 696.7l-480.5-1.4v-40l480.5 1.4zM176.5 695.2l0.1-40 19.9 0.1v40zM687.9 656.7l-0.2 40H677v-40zM196.5 114.3v-40l480.5 1.4v40zM690.7 115.7H677v-40h13.9zM179.5 114.2l0.1-40 16.9 0.1v40zM400.8 717.9c-11 0-20 8.9-20 19.9s8.9 20 19.9 20.1l86 0.4h0.1c11 0 20-8.9 20-19.9s-8.9-20-19.9-20.1l-86.1-0.4zM400.8 7.9c-11 0-20 8.9-20 19.9s8.9 20 19.9 20.1l86 0.4h0.1c11 0 20-8.9 20-19.9s-8.9-20-19.9-20.1l-86.1-0.4zM677 185.5v-69.8h13.7l0.1-40h-13.9v-75.2c0-8.9-7.2-16.1-16.1-16.1H212.6c-8.9 0-16.1 7.2-16.1 16.1v73.8h-16.9l-0.1 40h17.1v541l-19.9-0.1-0.1 40 20.1 0.1v72.5c0 8.9 7.2 16.1 16.1 16.1h448.3c8.9 0 16.1-7.2 16.1-16.1v-71.1h10.7l0.1-40h-10.9v-79.5h40V767.8c0 30.9-25.2 56.1-56.1 56.1H212.6c-30.9 0-56.1-25.2-56.1-56.1v-767.3c0-30.9 25.2-56.1 56.1-56.1h448.3c30.9 0 56.1 25.2 56.1 56.1v185h-40zM889.7 554.7H425.9c-17.6 0-32-14.4-32-32v-285.2c0-17.6 14.4-32 32-32h463.8c17.6 0 32 14.4 32 32V522.7c0 17.6-14.3 32-32 32z m-1.9-171.4h-6.1v-137.9H433.9V383.3h-20V467h20v47.7h447.8V467h6.1v-83.7zM433.9 462h447.8v-60H433.9zM413.9 467h20v-83.6h-20zM881.7 467h6.1v-83.6h-6.1zM774.8 318.2m-29.6 0a29.6 29.6 0 1 1 59.2 0 29.6 29.6 0 1 1-59.2 0ZM814.8 318.2m-29.6 0a29.6 29.6 0 1 1 59.2 0 29.6 29.6 0 1 1-59.2 0Z"  horiz-adv-x="1024" />

    
    <glyph glyph-name="xiugaimima" unicode="&#58956;" d="M512 893.44C231.424 893.44 3.584 666.112 3.584 385.024S231.424-122.88 512-122.88s508.416 227.328 508.416 508.416S793.088 893.44 512 893.44z m0-941.568c-239.616 0-433.664 194.048-433.664 433.664S272.384 819.2 512 819.2s433.664-194.048 433.664-433.664-194.048-433.664-433.664-433.664zM366.08 429.056c-11.264 0-20.48 9.216-20.48 20.48V496.64c0 76.8 62.464 139.776 139.776 139.776 65.536 0 122.88-46.08 136.704-109.568 2.56-11.264-4.608-22.016-15.872-24.576s-22.016 4.608-24.576 15.872c-9.728 44.544-50.176 77.312-96.768 77.312-54.272 0-98.816-44.032-98.816-98.816v-47.104c0.512-11.264-8.704-20.48-19.968-20.48zM629.76 134.656H336.896c-32.256 0-58.368 25.6-58.368 56.832v220.16c0 31.232 26.112 56.832 58.368 56.832h209.92c11.264 0 20.48-9.216 20.48-20.48s-9.216-20.48-20.48-20.48h-209.92c-9.216 0-17.408-7.68-17.408-15.872v-220.16c0-8.704 8.192-15.872 17.408-15.872H629.76c9.216 0 17.408 7.68 17.408 15.872v165.376c0 11.264 9.216 20.48 20.48 20.48s20.48-9.216 20.48-20.48v-165.376c0-31.232-26.112-56.832-58.368-56.832zM486.912 240.128c-5.12 0-10.24 2.048-14.336 6.144-8.192 8.192-8.192 20.992 0 29.184l258.56 259.584c8.192 8.192 20.992 8.192 29.184 0 8.192-8.192 8.192-20.992 0-29.184L501.76 246.272c-4.608-4.096-9.728-6.144-14.848-6.144z"  horiz-adv-x="1024" />

    
    <glyph glyph-name="lianxidianhua" unicode="&#58906;" d="M558.545455 221.090909m-186.181819 0a186.181818 186.181818 0 1 1 372.363637 0 186.181818 186.181818 0 1 1-372.363637 0ZM1017.320727 600.110545a22.155636 22.155636 0 0 0-31.348363 0L806.446545 779.636364h-588.8l-179.525818-179.525819a22.155636 22.155636 0 1 0-31.348363 31.348364l182.993454 182.993455A22.970182 22.970182 0 0 0 209.454545 826.181818h605.09091a22.946909 22.946909 0 0 0 19.781818-11.636363l182.993454-182.970182a22.155636 22.155636 0 0 0 0-31.464728zM354.304 653.963636A22.830545 22.830545 0 0 0 372.363636 663.272727h279.272728a22.830545 22.830545 0 0 0 18.059636-9.192727L916.503273 407.272727A39.005091 39.005091 0 0 0 930.909091 383.511273 195.886545 195.886545 0 0 0 930.909091 360.727273v-372.363637a46.545455 46.545455 0 0 0-46.545455-46.545454H139.636364a46.545455 46.545455 0 0 0-46.545455 46.545454V384a39.098182 39.098182 0 0 0 14.405818 23.272727zM139.636364-11.636364h744.727272V375.133091L642.769455 616.727273H381.230545L139.636364 375.133091V-11.636364z m372.363636 465.454546a186.181818 186.181818 0 1 0-186.181818-186.181818 186.181818 186.181818 0 0 0 186.181818 186.181818z m0-325.818182a139.636364 139.636364 0 1 1-139.636364 139.636364 139.636364 139.636364 0 0 1 139.636364-139.636364z"  horiz-adv-x="1024" />

    
    <glyph glyph-name="wuyejiaofei" unicode="&#58930;" d="M636.480587-8.382603l-10.238294 32.591901c174.733544 55.628062 159.546742 214.66289 158.522913 221.488419l34.127645 3.583403A249.30245 249.30245 0 0 0 636.480587-8.382603zM511.744043 834.3996l292.985835-443.65939A290.084986 290.084986 0 0 0 870.084319 211.228795C870.084319 45.880353 706.271621-93.701716 511.744043-93.701716 314.315614-93.701716 153.403766 45.709715 153.403766 217.54241a305.271788 305.271788 0 0 0 64.671888 177.97567L511.744043 834.3996M511.744043 896L190.6029 415.994668A341.276454 341.276454 0 0 1 119.276121 217.54241C119.276121 25.745042 297.763706-127.829362 511.744043-127.829362s392.467922 153.574404 392.467922 339.228795a325.577737 325.577737 0 0 1-70.985503 198.28162L511.744043 896zM370.626229 493.464423h51.191468L511.744043 325.556407l90.608898 167.908016h51.191468l-104.771871-183.777371h76.275287v-25.595734h-90.608898v-50.167639h90.608898v-25.595734h-90.608898V128.127979h-45.048492v80.199966h-90.096984v25.595734h90.096984v50.167639h-90.096984v25.595734h75.763373z"  horiz-adv-x="1024" />

    
    <glyph glyph-name="shouye" unicode="&#58915;" d="M877.714286 521.142857L541.257143 714.971429c-21.942857 12.8-51.2 12.8-73.142857 0L131.657143 521.142857c-9.142857-5.485714-10.971429-16.457143-7.314286-25.6 5.485714-9.142857 16.457143-10.971429 25.6-7.314286l34.742857 20.114286v-371.2c0-10.971429 7.314286-18.285714 18.285715-18.285714s18.285714 7.314286 18.285714 18.285714V530.285714l265.142857 153.6c10.971429 7.314286 25.6 7.314286 36.571429 0L788.114286 530.285714v-338.285714c0-10.971429 7.314286-18.285714 18.285714-18.285714s18.285714 7.314286 18.285714 18.285714V510.171429l34.742857-20.114286c3.657143-1.828571 5.485714-1.828571 9.142858-1.828572 5.485714 0 12.8 3.657143 16.457142 9.142858 5.485714 7.314286 1.828571 18.285714-7.314285 23.771428zM793.6 148.114286c-3.657143-3.657143-5.485714-7.314286-5.485714-12.8 0-5.485714 1.828571-9.142857 5.485714-12.8 3.657143-3.657143 7.314286-5.485714 12.8-5.485715 5.485714 0 9.142857 1.828571 12.8 5.485715 3.657143 3.657143 5.485714 7.314286 5.485714 12.8 0 5.485714-1.828571 9.142857-5.485714 12.8-5.485714 5.485714-18.285714 5.485714-25.6 0zM685.714286 367.542857c-9.142857 5.485714-20.114286 3.657143-25.6-5.485714-9.142857-12.8-62.171429-34.742857-148.114286-34.742857-85.942857 0-138.971429 20.114286-148.114286 32.914285-5.485714 9.142857-16.457143 10.971429-25.6 5.485715-9.142857-5.485714-10.971429-16.457143-5.485714-25.6 25.6-36.571429 111.542857-49.371429 179.2-49.371429 67.657143 0 155.428571 12.8 179.2 51.2 5.485714 9.142857 1.828571 20.114286-5.485714 25.6z"  horiz-adv-x="1024" />

    
    <glyph glyph-name="ic_tubiao_mianji" unicode="&#58881;" d="M85.333 71.111S201.956 696.89 352.711 696.89c125.156 0 119.467-227.556 213.333-227.556s76.8 116.623 176.356 116.623c156.444 0 196.267-512 196.267-512H85.333zM85.333 71.111s116.623 310.045 267.378 310.045c125.156 0 119.467-113.778 213.333-113.778s76.8 56.889 176.356 56.889c156.444 0 196.267-256 196.267-256H85.333z"  horiz-adv-x="1024" />

    
    <glyph glyph-name="jiaofeidating" unicode="&#58910;" d="M512 384m-512 0a512 512 0 1 1 1024 0 512 512 0 1 1-1024 0ZM360 76.8V563.2H169.6c-7.2 0-12.8-5.6-12.8-12.8v-460.8c0-7.2 5.6-12.8 12.8-12.8H360zM372.8 64H169.6c-14.4 0-25.6 11.2-25.6 25.6V550.4c0 14.4 11.2 25.6 25.6 25.6h203.2v-512zM169.6 550.4v-460.8h177.6V550.4H169.6zM664 563.2v-486.4h190.4c7.2 0 12.8 5.6 12.8 12.8V550.4c0 7.2-5.6 12.8-12.8 12.8H664zM854.4 64H651.2V576h203.2c14.4 0 25.6-11.2 25.6-25.6v-460.8c0-14.4-11.2-25.6-25.6-25.6z m-177.6 25.6h177.6V550.4H676.8v-460.8zM360 696.8v-620h304V696.8L512 796.8 360 696.8zM676.8 64H347.2V704L512 812 676.8 704v-640z m-304 25.6h278.4V690.4L512 781.6 372.8 690.4v-600.8zM575.2 580.8v4.8H448.8v-4.8h60.8v-56h-60.8v-4.8h60.8v-61.6h4.8V520h60.8v4.8h-60.8v56h60.8z m-61.6 12.8l44.8 44.8-4 4-40.8-40.8-40.8 40.8-4-4 44.8-44.8zM527.2 445.6h-30.4v61.6h-60.8v30.4h60.8V568h-60.8v31.2h54.4l-39.2 39.2 21.6 21.6 40.8-40.8 41.6 40.8 21.6-21.6-39.2-39.2h50.4V568h-60.8v-30.4h60.8v-30.4h-60.8zM220 473.6H296c14.4 0 25.6-11.2 25.6-25.6v-76.8c0-14.4-11.2-25.6-25.6-25.6h-76c-14.4 0-25.6 11.2-25.6 25.6V448c0 14.4 12 25.6 25.6 25.6zM728 473.6h76c14.4 0 25.6-11.2 25.6-25.6v-76.8c0-14.4-11.2-25.6-25.6-25.6H728c-14.4 0-25.6 11.2-25.6 25.6V448c0 14.4 11.2 25.6 25.6 25.6zM575.2 64H448.8V243.2c0 14.4 11.2 25.6 25.6 25.6h76c14.4 0 25.6-11.2 25.6-25.6V64z m-100.8 25.6h76V243.2h-76v-153.6z"  horiz-adv-x="1024" />

    
    <glyph glyph-name="tongzhigonggao" unicode="&#58932;" d="M512 384m-512 0a512 512 0 1 1 1024 0 512 512 0 1 1-1024 0ZM838.096414 483.199416a60.00000000000001 75.2 9 1 1-118.522601-18.772135 60.00000000000001 75.2 9 1 1 118.522601 18.772135ZM782.35962 386.408605c-16.178456-0.132499-32.567942 6.181354-45.882708 18.652001-15.145362 13.800652-25.635703 34.008392-29.264982 56.922761-7.508854 47.40904 17.964942 91.132326 57.472475 97.389705s77.245792-27.454101 84.754646-74.863142c3.62928-22.91437-0.22824-44.584615-10.242551-63.18014-10.804462-18.720673-27.476157-31.080875-47.229924-34.209564-3.160603-0.50059-6.446353-0.21103-9.606956-0.711621z m-13.920788 149.259947c-26.074972-4.12987-43.028875-35.164128-37.522382-69.930757 2.753247-17.383315 10.787253-32.310295 22.146275-42.660785 10.443723-9.685486 23.297164-14.129478 35.149424-12.252264 11.85226 1.877214 22.70334 10.075633 29.642931 22.514365 7.604594 13.354031 10.632698 30.033077 7.879451 47.416392-5.506493 34.76663-31.220726 59.042919-57.295699 54.913049zM318.536 231.13599999999997l23.904-150.912 67.952 10.76 14.816 157.048-106.672-16.896zM332.464 66.48800000000006L304.808 241.12l134.32 21.28-17.376-181.76-89.28-14.144z m-0.192 154.68l20.144-127.216 47.408 7.504 12.248 132.352-79.8-12.64zM255.288 558.88c-6.32-1-10.976-7.408-9.976-13.728l48.808-308.16c1-6.32 7.408-10.976 13.736-9.976l298.672 47.304c4.744 0.752 10.4 0.84 14.72-0.904l175.08-46.792c1.704-0.536 3.28-0.288 4.864-0.04 6.32 1.008 10.976 7.408 9.976 13.736L738.08 701.76c-0.248 1.584-0.496 3.168-1.536 4.624-3.376 5.944-10.864 7.184-16.8 3.816L567.68 611.6c-4.368-3.12-8.984-4.664-13.72-5.416L255.28 558.88zM799.912 214.24c-2.376-0.384-4.08 0.16-5.784 0.696l-175.072 46.792a21.304 21.304 0 0 1-9.856 0.864l-298.68-47.304c-6.32-1-13.016 0.368-17.72 4.48-5.488 4-8.736 9.152-9.736 15.472l-48.808 308.16c-1.008 6.32 0.368 13.016 4.48 17.72 3.992 5.488 9.144 8.736 15.464 9.736L552.88 618.1600000000001a21.304 21.304 0 0 1 9.104 3.872l151.256 98.48c5.16 3.248 11.48 4.24 18.056 3.664a26.32 26.32 0 0 0 15.432-10.512c2.08-2.912 3.368-5.944 3.872-9.104l73.088-461.448c2.128-13.44-6.52-25.336-19.952-27.464-1.456-1.04-3.04-1.288-3.824-1.416z m-187.232 72.4c4.08-0.168 8.152-0.336 12.352-1.28l175.072-46.8-73.088 461.456L574.184 601.28c-5.944-3.368-12.016-5.952-18.336-6.96l-298.68-47.304 48.8-308.16 298.68 47.312c2.376 0.376 4.744 0.752 8.032 0.464zM286.32 281.12L250.912 504.72l-84.544-13.392c-6.32-1-10.976-7.408-9.976-13.728l31.664-199.912c1-6.32 7.408-10.976 13.728-9.968l84.552 13.384zM199.704 255.24800000000005c-4.864 0.04-9.984 1.656-13.64 4.32a24.816 24.816 0 0 0-9.864 16.256l-31.664 199.904c-2.128 13.44 6.512 25.336 19.952 27.464l96.4 15.264 39.168-247.312-96.4-15.272-3.952-0.624z m41.232 235.752l-72.696-11.52 31.664-199.904 72.688 11.52-31.656 199.904zM432.864 153.67200000000003c-4.08 0.16-8.152 0.32-11.56 1.408l6.888 22.96c12.728-3.656 27.28 6.752 31.352 21.976 4.736 16.136-1.84 32.104-14.576 35.76l6.896 22.96c25.456-7.304 39.816-36.624 31.432-65.488-8.48-23.216-29.384-39.488-50.432-39.576z"  horiz-adv-x="1024" />

    
    <glyph glyph-name="zan" unicode="&#59127;" d="M588.346091 332.444767h235.338436c71.624742 0 127.901324-56.276583 127.901325-127.901324v-20.464212l-30.696318-204.642119c-10.232106-61.392636-61.392636-107.437112-127.901324-107.437112h-204.642119C516.721349-128 460.444767-71.723417 460.444767-0.098676v204.642119c0 71.624742 56.276583 127.901324 127.901324 127.901324zM209.758172-76.83947v414.40029H102.321059c-30.696318 0-51.16053-25.580265-51.160529-51.16053V-25.678941c0-30.696318 25.580265-51.16053 51.160529-51.160529h107.437113z m51.160529 0h588.346091c25.580265 0 46.044477 20.464212 51.16053 40.928423l71.624741 414.400291v10.232105c0 30.696318-25.580265 51.16053-51.160529 51.16053h-276.26686c-56.276583 0-102.321059 46.044477-102.32106 102.321059v204.642119c0 40.928424-25.580265 71.624742-66.508688 81.856847l-51.16053 15.348159-86.9729-424.632396c-10.232106-40.928424-35.812371-71.624742-76.740795-81.856847V-76.83947z m-51.160529 465.560819h25.580264c25.580265 0 46.044477 15.348159 51.16053 40.928424L373.471866 854.282169c5.116053 25.580265 30.696318 46.044477 56.276583 40.928424l51.16053-10.232106c61.392636-15.348159 102.321059-71.624742 102.321059-133.017377v-204.642119c0-30.696318 25.580265-51.16053 51.16053-51.160529H920.889534c56.276583 0 102.321059-46.044477 102.321059-102.32106v-15.348158l-71.624741-414.400291c-10.232106-51.16053-51.16053-86.9729-102.32106-86.9729H102.321059c-56.276583 0-102.321059 46.044477-102.321059 102.321059v312.079231c0 56.276583 46.044477 102.321059 102.321059 102.321059h107.437113z"  horiz-adv-x="1024" />

    
    <glyph glyph-name="weixin" unicode="&#58935;" d="M1010.8 268c0 141.2-141.3 256.2-299.9 256.2-168 0-300.3-115.1-300.3-256.2 0-141.4 132.3-256.2 300.3-256.2 35.2 0 70.7 8.9 106 17.7l96.8-53-26.6 88.2c70.9 53.2 123.7 123.7 123.7 203.3zM618 307.2c-22.1 0-40 17.9-40 40s17.9 40 40 40 40-17.9 40-40c0-22-17.9-40-40-40z m194.3 0.3c-22.1 0-40 17.9-40 40s17.9 40 40 40 40-17.9 40-40-17.9-40-40-40zM366.3 789.1c-194.1 0-353.1-132.3-353.1-300.3 0-97 52.9-176.6 141.3-238.4l-35.3-106.2 123.4 61.9c44.2-8.7 79.6-17.7 123.7-17.7 11.1 0 22.1 0.5 33 1.4-6.9 23.6-10.9 48.3-10.9 74 0 154.3 132.5 279.5 300.2 279.5 11.5 0 22.8-0.8 34-2.1C692 683.4 539.9 789.1 366.3 789.1zM247.7 546.8c-26.5 0-48 21.5-48 48s21.5 48 48 48 48-21.5 48-48-21.5-48-48-48z m246.6 0c-26.5 0-48 21.5-48 48s21.5 48 48 48 48-21.5 48-48-21.5-48-48-48z"  horiz-adv-x="1024" />

    
    <glyph glyph-name="lianxiren" unicode="&#58979;" d="M768 800H320c-88 0-160-72-160-160v-96h-32c-17.6 0-32-14.4-32-32s14.4-32 32-32h32v-192h-32c-17.6 0-32-14.4-32-32s14.4-32 32-32h32v-96c0-88 72-160 160-160h448c88 0 160 72 160 160V640c0 88-72 160-160 160z m96-672c0-52.8-43.2-96-96-96H320c-52.8 0-96 43.2-96 96v96h32c17.6 0 32 14.4 32 32s-14.4 32-32 32h-32V480h32c17.6 0 32 14.4 32 32s-14.4 32-32 32h-32v96c0 52.8 43.2 96 96 96h448c52.8 0 96-43.2 96-96v-512zM659.2 432c17.6 22.4 28.8 49.6 28.8 80 0 70.4-57.6 128-128 128s-128-57.6-128-128c0-30.4 11.2-57.6 28.8-80C387.2 400 336 318.4 336 224c0-52.8 43.2-96 96-96h256c52.8 0 96 43.2 96 96 0 94.4-51.2 176-124.8 208zM560 576c35.2 0 64-28.8 64-64s-28.8-64-64-64-64 28.8-64 64 28.8 64 64 64z m128-384H432c-17.6 0-32 14.4-32 32 0 88 59.2 160 131.2 160h56c72 0 131.2-72 131.2-160 1.6-17.6-12.8-32-30.4-32z"  horiz-adv-x="1024" />

    
    <glyph glyph-name="fangjian" unicode="&#58927;" d="M839.168 315.904c0 15.872-12.8 28.672-28.672 28.672-15.872 0-28.672-12.8-28.672-28.672v-238.592c0-2.048 0-3.584 0.512-5.632 0.512-2.048 0.512-9.216-2.048-12.288-1.536-1.536-5.632-3.584-14.336-3.584h-160.256l-1.024 169.472c1.024 8.704 2.56 37.376-14.848 58.368-7.68 9.216-22.016 19.968-46.08 19.968H481.28c-24.064 0-38.4-10.752-46.08-19.968-17.408-20.48-15.872-49.152-14.848-58.368l-1.024-168.96H258.56c-8.192 0-12.8 1.536-14.336 3.072-2.048 2.56-2.56 8.704-2.048 12.288 0.512 2.048 0.512 3.584 0.512 5.12v238.592c0 15.872-12.8 28.672-28.672 28.672-15.872 0-28.672-12.8-28.672-28.672v-230.912c-1.536-10.24-2.56-35.84 14.336-56.32 9.216-11.264 26.624-24.064 58.368-24.064h188.928c15.872 0 28.672 12.8 28.672 18.432l1.024 194.56c0 11.776 0 13.312-0.512 14.848-0.512 5.12 0 11.776 1.536 14.336h67.072c1.024-2.048 2.048-9.216 1.536-14.336-0.512-1.536-0.512-3.072-0.512-14.848l1.024-194.56c0-5.632 12.8-18.432 28.672-18.432h188.928c31.744 0 49.152 13.312 58.368 24.064 16.896 20.48 15.872 46.08 14.336 56.32l2.048 231.424zM934.4 369.152L609.28 718.848c-6.656 7.168-39.936 43.008-90.112 45.056-36.352 1.024-71.168-15.36-102.912-49.152-47.104-49.152-151.552-160.256-311.808-329.728-9.216-9.728-14.336-15.36-14.848-15.872-10.752-11.264-10.24-29.696 1.024-40.96 5.12-5.12 12.288-7.68 19.968-7.68h1.024c7.68 0 14.848 3.584 19.968 9.216 0.512 0.512 6.144 6.656 15.872 16.896 159.744 168.96 263.68 279.552 309.76 328.192 19.968 20.992 39.936 31.744 58.88 31.232 27.136-0.512 47.104-23.552 48.64-25.088l1.024-1.024 326.144-350.208c5.632-5.632 13.312-9.216 20.992-9.216 7.168 0 14.336 2.56 19.456 7.68 11.776 11.264 12.8 29.184 2.048 40.96z"  horiz-adv-x="1024" />

    
    <glyph glyph-name="yonghu1" unicode="&#58960;" d="M438.272 292.352c-132.608 0-240.64 108.032-240.64 240.64s108.032 240.64 240.64 240.64 240.64-108.032 240.64-240.64-108.032-240.64-240.64-240.64z m0 419.84c-98.816 0-179.2-80.384-179.2-179.2s80.384-179.2 179.2-179.2 179.2 80.384 179.2 179.2-80.384 179.2-179.2 179.2zM832.512-59.904h-30.72c-257.536 1.536-361.984 0-363.008 0H44.032v30.72c0 209.408 165.888 361.984 394.24 361.984s394.24-152.064 394.24-361.984v-30.72z m-725.504 61.44h331.264c0.512 0 96.256 1.536 331.264 0-15.36 157.696-150.016 269.312-331.264 269.312-181.248 0.512-315.904-111.104-331.264-269.312zM715.776 357.888l-35.84 49.664C732.16 445.44 762.88 505.856 762.88 569.856c0 97.792-72.704 182.272-168.96 196.608l9.216 60.928c126.464-18.944 221.184-129.536 221.184-257.536 0-83.968-40.448-162.816-108.544-211.968zM964.096 13.824l-58.368 19.456c8.192 24.576 12.288 50.176 12.288 76.288 0 131.072-107.008 238.08-238.08 238.08V409.6c165.376 0 299.52-134.144 299.52-299.52 0.512-32.768-5.12-65.024-15.36-96.256zM964.096 14.336h-67.072l9.216 20.48h57.856zM603.136 766.464H593.92v61.44l9.216-0.512z"  horiz-adv-x="1024" />

    
    <glyph glyph-name="gengduo" unicode="&#59054;" d="M375.1 418.4H209c-50.9 0-92.3 41.4-92.3 92.3v166c0 50.9 41.4 92.3 92.3 92.3h166.1c50.9 0 92.3-41.4 92.3-92.3v-166.1c0-50.8-41.4-92.2-92.3-92.2zM209 705.3c-15.7 0-28.5-12.8-28.5-28.5v-166.1c0-15.8 12.8-28.5 28.5-28.5h166.1c15.7 0 28.5 12.8 28.5 28.5v166c0 15.7-12.8 28.5-28.5 28.5H209zM815 418.4H648.9c-50.9 0-92.3 41.4-92.3 92.3v166c0 50.9 41.4 92.3 92.3 92.3H815c50.9 0 92.3-41.4 92.3-92.3v-166.1c0-50.8-41.4-92.2-92.3-92.2zM648.9 705.3c-15.7 0-28.5-12.8-28.5-28.5v-166.1c0-15.8 12.8-28.5 28.5-28.5H815c15.7 0 28.5 12.8 28.5 28.5v166c0 15.7-12.8 28.5-28.5 28.5H648.9zM375.1-1.1H209c-50.9 0-92.3 41.4-92.3 92.3V257.3c0 50.9 41.4 92.3 92.3 92.3h166.1c50.9 0 92.3-41.4 92.3-92.3v-166.1c0-50.8-41.4-92.3-92.3-92.3zM209 285.9c-15.7 0-28.5-12.8-28.5-28.5v-166.1c0-15.8 12.8-28.5 28.5-28.5h166.1c15.7 0 28.5 12.8 28.5 28.5v166c0 15.8-12.8 28.5-28.5 28.5H209zM815 349.6H648.9c-50.9 0-92.3-41.4-92.3-92.3v-166.1c0-50.9 41.4-92.3 92.3-92.3H815c50.9 0 92.3 41.4 92.3 92.3V257.3c0 50.9-41.4 92.3-92.3 92.3z"  horiz-adv-x="1024" />

    
    <glyph glyph-name="dingwei" unicode="&#58946;" d="M517.12 33.90464l-11.76576 16.31232c-9.49248 13.14816-232.82688 323.52256-262.03136 441.21088-17.41824 70.21568-1.83296 141.056 43.86816 199.48544C340.74624 759.37792 426.7008 800.24576 517.12 800.24576c90.42944 0 176.384-40.87808 229.9392-109.34272 45.70112-58.42944 61.27616-129.28 43.85792-199.48544-29.19424-117.69856-252.53888-428.06272-262.03136-441.21088L517.12 33.90464z m0 737.31072c-81.5616 0-158.96576-36.70016-207.07328-98.19136-40.0896-51.24096-53.78048-113.2544-38.56384-174.61248 24.1664-97.42336 198.38976-347.94496 245.62688-414.70976 47.23712 66.7648 221.47072 317.29664 245.61664 414.70976 15.22688 61.35808 1.536 123.37152-38.5536 174.61248-48.0768 61.4912-125.48096 98.19136-207.0528 98.19136zM517.12-39.82336c-203.3664 0-362.67008 63.34464-362.67008 144.19968 0 49.664 57.6512 93.34784 158.18752 119.8592l7.40352-28.0576c-84.23424-22.2208-136.5504-57.38496-136.5504-91.8016 0-54.4768 137.02144-115.17952 333.64992-115.17952 196.61824 0 333.64992 60.70272 333.64992 115.17952 0 34.4064-52.3264 69.5808-136.56064 91.8016l7.40352 28.0576c100.52608-26.51136 158.17728-70.1952 158.17728-119.8592-0.02048-80.85504-159.32416-144.19968-362.69056-144.19968zM517.12 494.44864m-81.92 0a81.92 81.92 0 1 1 163.84 0 81.92 81.92 0 1 1-163.84 0Z"  horiz-adv-x="1024" />

    
    <glyph glyph-name="tingcheku" unicode="&#58966;" d="M569.414132 354.843146m-310.159783 0a310.159782 310.159782 0 1 1 620.319565 0 310.159782 310.159782 0 1 1-620.319565 0ZM533.113584 15.085541c-50.305715 0-99.129776 9.842423-145.096359 29.315603-44.379095 18.76763-84.242671 45.649085-118.461846 79.86826s-61.10063 74.082751-79.86826 118.461846c-19.437903 45.966583-29.315603 94.790643-29.315603 145.096359s9.842423 99.129776 29.315603 145.096358c18.76763 44.379095 45.649085 84.242671 79.86826 118.461846s74.082751 61.10063 118.461846 79.868261c45.966583 19.437903 94.790643 29.315603 145.096359 29.315603s99.129776-9.842423 145.096358-29.315603c44.379095-18.76763 84.242671-45.649085 118.461846-79.868261s61.10063-74.082751 79.868261-118.461846c19.437903-45.966583 29.315603-94.790643 29.315603-145.096358s-9.842423-99.129776-29.315603-145.096359c-18.76763-44.379095-45.649085-84.242671-79.868261-118.461846s-74.082751-61.10063-118.461846-79.86826c-45.966583-19.437903-94.755366-29.315603-145.096358-29.315603z m0 703.92724c-182.631619 0-331.185172-148.553554-331.185173-331.185172s148.553554-331.185172 331.185173-331.185173c182.631619 0 331.185172 148.553554 331.185172 331.185173s-148.553554 331.185172-331.185172 331.185172zM668.0853 453.126262c0-33.72529-9.842423-60.430358-29.49199-80.079926-19.684845-19.684845-47.095463-29.49199-82.161298-29.49199H495.296104v-141.180556h-48.471286V562.698178h109.571916c35.101113 0 62.476453-9.842423 82.161298-29.491991 19.684845-19.684845 29.527268-46.354635 29.527268-80.079925z m-48.471285 0c0 26.66979-6.314673 44.943535-18.979296 54.785958-12.629345 9.807145-31.60864 14.745995-56.902608 14.745995H495.296104v-139.063906h48.471285c25.293968 0 44.237985 4.903573 56.902608 14.745995 12.629345 9.842423 18.944018 28.08089 18.944018 54.785958z"  horiz-adv-x="1024" />

    
    <glyph glyph-name="dianhua" unicode="&#58983;" d="M896 148.92v-14c-0.32-0.51-0.9-1-0.93-1.52-1.07-18.23-9.84-32.94-21.4-46.24-12.75-14.69-30-20.07-48.47-20.09q-302.46-0.36-604.94-0.11c-8.59 0-17.21 0.39-25.79 1-17.15 1.22-31.24 7.44-42.24 21.85-18.81 24.63-24.45 50.94-14.11 80.21a496.43 496.43 0 0 0 41.81 90c17.09 28.57 37.52 54.53 60.38 78.59 7.62 8 16.18 15.12 24.4 22.55A359.14 359.14 0 0 0 315 398.59a380.64 380.64 0 0 0 78 37.33c18.17 6.3 36.66 11.64 55.81 14 18.39 2.26 36.82 4.41 55.29 5.84 8.52 0.66 17.2-0.29 25.78-0.88 11.65-0.8 23.29-1.76 34.9-3 20.17-2.13 39.76-7 59.13-12.89A391.13 391.13 0 0 0 710 400.95a372.73 372.73 0 0 0 71.79-54.65A488.09 488.09 0 0 0 820 304a365.42 365.42 0 0 0 30.54-43.73c10.46-17.78 19.6-36.48 28.23-55.27 5.46-12 9.23-24.71 13.23-37.25 1.91-6.09 2.69-12.54 4-18.83z m-407.29-33C420.17 130.14 369.62 194 378.2 264.62c7.72 63.38 60.35 114.48 125.72 119.07 38.6 2.71 72.95-9.88 101.06-36.57 26.54-25.18 40.55-57 41.74-93.47 1.09-33.26-9.87-62.91-31.14-88.77s-48.13-41.6-80.48-49H803.05a144.68 144.68 0 0 0 17.27-1.2c5-0.62 10.07-0.23 13.73 3.05a38.09 38.09 0 0 1 13 25.65c0.72 7.93-3.64 14.4-5.86 21.53a347.2 347.2 0 0 1-36.33 79.44c-15.66 25.34-33.63 48.94-55.85 69-12.44 11.21-25.17 22.19-38.44 32.4-23 17.74-48.6 31.35-75.56 42C613.93 396 592.33 403 569.73 406c-17.56 2.27-35.16 4.25-52.79 5.8-6.36 0.56-12.88-0.32-19.29-0.9-13.57-1.22-27.37-1.5-40.62-4.31a477 477 0 0 1-54-14.9c-22.94-7.77-44.36-19.06-64.82-32.06a357 357 0 0 1-46.13-35c-16.73-14.91-32.65-30.64-45.82-48.68-12.68-17.36-24.41-35.49-35.47-53.93a290.34 290.34 0 0 1-30.31-70.31c-1.65-5.81-2.95-12 0.59-17.66 2.68-4.28 5.77-8.3 8.76-12.37 5.67-7.71 12.76-10.63 22.43-7.9a66 66 0 0 0 17.53 2.08q126.75 0.2 253.48 0.09zM602 245.32c0 3 0.61 7.26-0.1 11.3-4 22.59-13.71 42-31.79 56.82-21.67 17.82-46.41 24.73-73.84 20.26-24-3.9-44-15.29-58.94-35-11.33-15-15.87-32.24-16-50.45-0.05-9.12 2.08-18.57 4.93-27.31 9-27.77 28-46.42 55.15-56.74 19.23-7.31 39-7.06 58.59-2.13 17.78 4.47 33.17 13.69 44.58 28.17 12.3 15.68 18.25 33.76 17.42 55.08zM505.74 66.4c-82.48 0-164.52 0-245.38 0.05h-40.1c-7.9 0-16.34 0.33-25.82 1-18.59 1.32-32.13 8.33-42.61 22-19.64 25.72-24.28 52.11-14.18 80.68 11.67 33 25.35 62.47 41.85 90 16.37 27.36 36.15 53.1 60.45 78.68 5.61 5.9 11.83 11.4 17.85 16.72q3.3 2.91 6.58 5.85c14.33 13 30.82 25.24 50.4 37.53a382.94 382.94 0 0 0 78.07 37.38c22.06 7.65 39.31 12 55.92 14 20.49 2.52 37.74 4.47 55.31 5.83 7 0.55 14.18 0 21.13-0.53l4.73-0.34c12.72-0.87 24.14-1.85 34.91-3 17.72-1.87 36-5.85 59.23-12.91a393.66 393.66 0 0 0 86.21-38.1 374.35 374.35 0 0 0 71.89-54.73 488.86 488.86 0 0 0 38.22-42.28 364.19 364.19 0 0 0 30.6-43.66c11.53-19.65 21.14-39.93 28.23-55.4 4.69-10.24 8.16-21.24 11.51-31.87l1.71-5.4a102.61 102.61 0 0 0 2.93-13c0.35-1.94 0.71-3.95 1.12-5.9v-14.25l-0.08-0.12a6 6 0 0 0-0.39-0.53 1.92 1.92 0 0 1-0.46-0.75c-0.94-15.93-7.77-30.71-21.52-46.54-11.66-13.42-28.09-20.24-48.85-20.26-106.04-0.11-213.11-0.15-319.46-0.15z m4.52 389.07c-2 0-4.08-0.06-6.1-0.22-17.56-1.36-34.79-3.32-55.27-5.83-16.54-2-33.72-6.34-55.71-14a381.78 381.78 0 0 1-77.87-37.29c-19.53-12.26-36-24.5-50.26-37.42-2.18-2-4.38-3.91-6.59-5.86-6-5.3-12.2-10.79-17.78-16.66-24.26-25.52-44-51.2-60.33-78.51a492.78 492.78 0 0 1-41.76-89.85c-10-28.23-5.38-54.32 14-79.74 10.29-13.48 23.59-20.36 41.88-21.66 9.45-0.67 17.88-1 25.75-1h40.1c185.13-0.05 376.56-0.11 564.84 0.12 20.45 0 36.63 6.72 48.09 19.91 13.6 15.66 20.36 30.25 21.28 45.95a2.44 2.44 0 0 0 0.68 1.32l0.25 0.32v13.8c-0.4 2-0.76 3.94-1.11 5.87a101.26 101.26 0 0 1-2.9 12.86c-0.57 1.79-1.14 3.6-1.71 5.4-3.35 10.6-6.8 21.57-11.47 31.75-7.07 15.45-16.67 35.7-28.19 55.32a363.84 363.84 0 0 1-30.49 43.67 490.32 490.32 0 0 1-38.15 42.2 373.79 373.79 0 0 1-71.7 54.58 392.54 392.54 0 0 1-86 38c-23.18 7-41.39 11-59 12.87-10.76 1.14-22.16 2.11-34.87 3l-4.74 0.35c-4.89 0.37-9.9 0.75-14.87 0.75zM205.59 112.26c-6.39 0-11.73 3-16.2 9.09l-1.57 2.12c-2.45 3.31-5 6.74-7.21 10.29-3.67 5.85-2.33 12.13-0.65 18a291.73 291.73 0 0 0 30.36 70.44c12.12 20.2 23.73 37.86 35.49 54 11.37 15.57 25.52 30.61 45.89 48.76a360.87 360.87 0 0 0 46.2 35c23 14.59 44.19 25.09 64.93 32.11A477.08 477.08 0 0 0 456.92 407c9.7 2.05 19.83 2.77 29.63 3.47 3.63 0.26 7.38 0.52 11.06 0.85l3.3 0.32c5.29 0.51 10.76 1.05 16.07 0.58 16.54-1.45 33.82-3.35 52.81-5.81 19.61-2.53 39.77-8.17 65.37-18.29 29.06-11.48 53.81-25.24 75.68-42.07 11.57-8.9 23.79-19.21 38.47-32.43 20.12-18.13 38.42-40.72 55.94-69.07A348.75 348.75 0 0 0 841.63 165c0.65-2.1 1.51-4.18 2.35-6.2 2-4.83 4-9.82 3.53-15.52a38.52 38.52 0 0 0-13.13-26c-3.24-2.9-7.85-3.94-14.12-3.17a142.76 142.76 0 0 1-17.21 1.2H530.66l4.33 1c33.17 7.55 59.4 23.51 80.2 48.8 21.65 26.32 32.09 56.07 31 88.44-1.19 36.83-15.19 68.16-41.55 93.21-28.32 26.87-62.18 39.13-100.69 36.43-64.77-4.55-117.45-54.44-125.25-118.63-8.34-68.53 40-133.61 110.11-148.15l4.77-1h-58.86c-67.18 0-136.64 0-205-0.09a64.45 64.45 0 0 1-17.39-2.07 25 25 0 0 0-6.74-0.99z m307.06 299.19c-3.88 0-7.81-0.38-11.65-0.76l-3.3-0.31c-3.69-0.33-7.45-0.6-11.08-0.86-9.76-0.69-19.86-1.41-29.49-3.45a475.15 475.15 0 0 1-54-14.89c-20.66-7-41.83-17.46-64.71-32a358.61 358.61 0 0 1-46.07-34.95c-20.32-18.1-34.43-33.09-45.75-48.6-11.75-16.08-23.34-33.71-35.44-53.89a291 291 0 0 1-30.26-70.19c-1.62-5.71-2.91-11.74 0.54-17.25 2.2-3.52 4.72-6.93 7.16-10.22l1.57-2.13c5.77-7.84 12.73-10.29 21.89-7.71a65.69 65.69 0 0 0 17.67 2.1c68.33 0.1 137.79 0.09 205 0.09h49.47c-68.2 16.4-114.72 80.66-106.49 148.25a137.24 137.24 0 0 0 126.17 119.5c38.8 2.73 72.92-9.62 101.45-36.69 26.59-25.24 40.69-56.81 41.89-93.82 1.06-32.62-9.45-62.6-31.26-89.1-20.08-24.41-45.18-40.19-76.63-48.15H803.05a142.74 142.74 0 0 0 17.33-1.21c6-0.72 10.32 0.23 13.34 2.93a37.58 37.58 0 0 1 12.8 25.32c0.49 5.45-1.44 10.11-3.47 15-0.84 2-1.71 4.15-2.38 6.3a348.17 348.17 0 0 1-36.27 79.33c-17.47 28.26-35.71 50.78-55.76 68.85-14.66 13.2-26.87 23.49-38.41 32.38-21.79 16.77-46.47 30.48-75.44 41.93-25.51 10.08-45.6 15.71-65.13 18.23-19 2.45-36.24 4.35-52.77 5.81-1.4 0.11-2.82 0.16-4.24 0.16z m0.11-253.45a87.82 87.82 0 0 0-31.55 5.74c-27.93 10.62-46.59 29.81-55.45 57-3.38 10.38-5 19.37-4.95 27.47 0.11 19.76 5.52 36.83 16.07 50.75 14.66 19.32 34.59 31.15 59.26 35.17 27.41 4.45 52.38-2.4 74.24-20.37 17.24-14.18 27.7-32.86 32-57.12a37.61 37.61 0 0 0 0.22-8.5c-0.06-1-0.11-2-0.11-2.88 0.88-21.2-4.85-39.31-17.5-55.37-11.13-14.12-26.21-23.66-44.85-28.34a111.74 111.74 0 0 0-27.38-3.55z m-0.69 176.49a98.17 98.17 0 0 1-15.77-1.3c-24.4-4-44.13-15.67-58.62-34.78-10.42-13.74-15.76-30.62-15.87-50.15-0.05-8 1.56-16.88 4.9-27.16 8.76-26.94 27.22-45.92 54.86-56.42 17.86-6.79 36.93-7.48 58.29-2.11 18.41 4.63 33.32 14 44.3 28 12.5 15.87 18.16 33.77 17.29 54.72 0 0.89 0 1.89 0.11 2.95a36.65 36.65 0 0 1-0.2 8.27c-4.23 24-14.57 42.5-31.62 56.52-17.35 14.3-36.74 21.48-57.67 21.48zM128 472.92v59c3.29 8.92 7.63 17.33 14.54 23.91 9.68 9.22 19.6 18.2 29.79 26.84 22.26 18.88 46.79 34.5 72.35 48.42 22.1 12 45.28 21.61 68.92 30.31 27.06 9.95 54.11 19.86 82.35 25.85 18.18 3.86 36.56 6.87 54.95 9.55 13.48 2 27.1 3.69 40.69 3.93 27.65 0.49 55.35 1.15 82.89-2.78 12.79-1.83 25.76-2.74 38.42-5.23 29.24-5.77 58-13.17 86.05-23.63 30.54-11.4 61.44-21.93 89.43-39 15.16-9.26 30.16-18.84 44.74-29 11-7.64 21.44-16.16 31.76-24.73a167.45 167.45 0 0 0 17-16.54c7.18-7.94 11.44-17.56 14.07-27.9v-59c-0.36-2.34-0.61-4.7-1.09-7-3.28-15.84-8.73-30.83-19.15-43.4-10.2-12.31-22.61-20.77-39.61-20.65-31.32 0.21-62.65 0-94 0.15-3.49 0-7.46 0.46-10.39 2.14-8.87 5.1-17.46 10.7-25.89 16.51-4 2.73-8.27 5.78-10.79 9.72-8 12.43-10.72 26.64-11 41.16-0.4 20.48-0.11 41-0.1 61.47 0 3.18-0.13 6.45-3.65 7.74-11.3 4.16-22.52 8.58-34 12.08-21.67 6.6-43.52 12.55-66.12 15.15-14.16 1.62-28.29 4.34-42.48 4.71-27.6 0.73-55.28 1.2-82.67-3.75-14-2.53-28.22-3.92-41.84-7.67-21-5.79-41.42-13.45-62.28-19.67-5.39-1.6-5.94-4.42-6-8.89-0.23-23.09 0-46.22-1.27-69.26-0.54-9.53-3.77-19.16-7.22-28.2-4-10.51-13.63-16.53-21.9-23.56-8.92-7.58-19-10-30.51-9.9-29.31 0.37-58.64 0.07-88 0.21a36.54 36.54 0 0 0-10.54 1.8c-22.09 6.85-36.32 23-47.28 42.09-4.64 8.24-6.83 17.96-10.17 27.02z m661.64-22c15.17 0 30.33 0.09 45.5-0.08 2.94 0 4.49 1 5.72 3.51a61.75 61.75 0 0 1 6.08 26c0.23 13.49-0.29 27 0.2 40.49 0.26 7.06-1.12 11.84-7.53 16.31-18.89 13.23-36.78 27.85-55.61 41.1-15.73 11.07-32.08 21.29-48.49 31.35-10.57 6.47-21.26 13.14-32.71 17.69-31.51 12.54-63.86 22.68-97.55 27.58-21.71 3.16-43.5 6.59-65.37 7.73-25.26 1.32-50.7 1.14-75.87-2.7-18.73-2.87-37.61-5.09-56.05-9.27-32-7.24-63-17.75-92.37-32.59-17.21-8.7-34.46-17.4-51.07-27.18-17.26-10.17-34.07-21.19-50.5-32.67-11.92-8.33-23-17.93-34.23-27.19a8.64 8.64 0 0 1-2.66-5.86c-0.22-14.83-0.13-29.66-0.09-44.5a8.76 8.76 0 0 1 0.62-3.83c3.74-7.55 7.72-15 11.42-22.56 1.39-2.84 3.36-3.41 6.33-3.4 29 0.11 58 0.07 87 0.07 5.95 0 16.56 8.55 17.54 14.45a74.7 74.7 0 0 1 1 11.76c0.1 19.83 0 39.66 0.07 59.49a40.65 40.65 0 0 0 0.53 5.39c1.68 12 7 22.43 14.82 31.42 4 4.66 8.75 9.66 14.23 12 14.65 6.22 29.73 11.56 44.92 16.38 21 6.65 42.24 12.25 64.11 15.14 15.75 2.07 31.48 5.23 47.28 5.71 28.43 0.86 57 1.46 85.18-3.73 16.52-3 33.24-5.31 49.45-9.52 19-4.93 37.68-11.35 56.32-17.65a104.79 104.79 0 0 0 22.18-10c18.74-11.78 28.23-29 28-51.39-0.17-17 0.34-34-0.16-51-0.33-11.3 5.67-19.23 12.35-27 0.93-1.09 3.25-1.37 4.93-1.38 14.84-0.12 29.65-0.07 44.48-0.07zM285 401.29h-0.92c-17.63 0.23-35.57 0.2-52.91 0.18h-35a37 37 0 0 0-10.69 1.82c-19.31 6-34.42 19.44-47.57 42.32-3.28 5.72-5.38 12.22-7.4 18.51-0.91 2.84-1.86 5.78-2.9 8.59v59.37c3.94 10.66 8.6 18.32 14.67 24.1 10 9.52 20 18.55 29.81 26.86 20 17 43.7 32.83 72.43 48.48 19.22 10.46 41.14 20.1 69 30.34 26.5 9.74 53.9 19.82 82.42 25.87 15.79 3.35 33.26 6.39 55 9.56 13 1.89 26.94 3.68 40.75 3.93l3 0.05c26.24 0.47 53.37 1 79.94-2.84 4.69-0.67 9.49-1.23 14.13-1.76 8-0.93 16.29-1.89 24.32-3.47 32.5-6.41 60.67-14.15 86.13-23.65l10.68-4c26.58-9.82 54.06-20 78.83-35.11 17-10.35 31.59-19.83 44.77-29 11.11-7.71 21.79-16.46 31.79-24.76a166.19 166.19 0 0 0 17.1-16.58c6.59-7.29 11.23-16.49 14.18-28.12v-59.12c-0.12-0.82-0.22-1.56-0.32-2.3-0.22-1.58-0.45-3.22-0.78-4.82-3.84-18.54-10-32.4-19.25-43.61-11.87-14.32-24.61-20.94-40-20.83-16.78 0.11-33.84 0.1-50.33 0.09-14.3 0-29.09 0-43.63 0.06-4.54 0-8.13 0.77-10.64 2.21-7.92 4.55-16.16 9.8-25.92 16.52-3.49 2.4-8.26 5.69-10.93 9.87-7.14 11.13-10.76 24.68-11.09 41.42-0.28 14.52-0.22 29.29-0.15 43.58v17.9c0 3.43-0.24 6.14-3.32 7.27q-3.79 1.39-7.57 2.82c-8.61 3.21-17.51 6.54-26.43 9.26-20.67 6.29-43 12.47-66 15.12-4.52 0.52-9.1 1.15-13.53 1.77-9.47 1.32-19.27 2.69-28.92 2.94-29.54 0.78-56.15 1-82.56-3.74-4.53-0.82-9.16-1.54-13.65-2.22-9.33-1.43-19-2.91-28.15-5.44-11.82-3.26-23.68-7.19-35.15-11-8.86-2.93-18-6-27.12-8.68-5.19-1.54-5.59-4.21-5.63-8.42q-0.07-8.32-0.11-16.65c-0.08-17.26-0.16-35.11-1.16-52.63-0.54-9.62-3.81-19.31-7.25-28.35-3.3-8.65-10.41-14.36-17.29-19.87-1.57-1.27-3.2-2.58-4.76-3.9-8.07-6.75-17.59-9.94-29.92-9.94z m-37.88 1.19c12.27 0 24.69 0 37-0.19 12.55-0.16 22.14 2.95 30.18 9.78 1.56 1.33 3.2 2.64 4.78 3.91 6.77 5.43 13.77 11 17 19.45 3.42 9 6.66 18.57 7.2 28.05 1 17.49 1.07 35.32 1.15 52.58q0 8.32 0.11 16.65c0.05 4.4 0.53 7.64 6.35 9.37 9.08 2.71 18.23 5.74 27.09 8.67 11.48 3.8 23.35 7.73 35.2 11 9.23 2.55 18.91 4 28.26 5.47 4.48 0.68 9.11 1.39 13.62 2.21 26.5 4.79 53.16 4.54 82.77 3.76 9.7-0.25 19.53-1.62 29-2.95 4.42-0.61 9-1.25 13.5-1.77 23.13-2.65 45.48-8.85 66.2-15.16 8.95-2.72 17.86-6.05 26.49-9.28l7.56-2.81c4-1.47 4-5.36 4-8.21v-17.91c-0.07-14.28-0.13-29 0.15-43.55 0.33-16.55 3.9-29.93 10.93-40.9 2.37-3.71 6.23-6.54 10.65-9.58 9.74-6.71 18-11.94 25.86-16.48 2.36-1.36 5.78-2.06 10.15-2.08 14.53-0.08 29.32-0.07 43.61-0.06 16.5 0 33.57 0 50.35-0.09h0.35c15 0 27.31 6.52 38.88 20.48 9.18 11.08 15.23 24.8 19 43.18 0.33 1.56 0.55 3.18 0.77 4.75 0.1 0.74 0.2 1.49 0.32 2.23v58.85c-2.92 11.45-7.48 20.49-13.94 27.64a165.25 165.25 0 0 1-17 16.48c-10 8.29-20.64 17-31.72 24.71-13.17 9.14-27.79 18.61-44.72 29-24.69 15.08-52.13 25.22-78.66 35l-10.68 4c-25.4 9.49-53.53 17.21-86 23.61-8 1.57-16.25 2.53-24.24 3.45-4.65 0.54-9.46 1.1-14.16 1.77-26.49 3.79-53.58 3.3-79.78 2.83l-3-0.05c-13.75-0.25-27.64-2-40.61-3.92-21.71-3.17-39.16-6.2-54.93-9.55-28.44-6-55.81-16.1-82.28-25.83-27.8-10.23-49.68-19.85-68.85-30.28-28.67-15.61-52.31-31.43-72.26-48.36-9.78-8.3-19.8-17.32-29.77-26.82-5.94-5.66-10.52-13.17-14.39-23.64V473c1-2.81 2-5.73 2.88-8.55 2-6.24 4.09-12.69 7.32-18.32 13-22.65 28-36 47-41.86a35.74 35.74 0 0 1 10.39-1.78c11.68-0.06 23.56 0 35 0z m588.18 47.86h-0.14c-11.24 0.12-22.68 0.11-33.73 0.09h-22c-11.24 0-22.86 0-34.29 0.07-1.49 0-4.16 0.22-5.3 1.56-6.76 7.86-12.8 15.87-12.47 27.34 0.3 10.1 0.24 20.38 0.18 30.33 0 6.77-0.09 13.76 0 20.65 0.23 22.09-9.11 39.24-27.76 50.95-5.89 3.7-12.9 6.87-22.07 10l-3.77 1.27c-17.11 5.79-34.79 11.77-52.51 16.37-11.55 3-23.57 5-35.2 7-4.66 0.79-9.49 1.61-14.22 2.48-27.16 5-54.59 4.65-85.07 3.73-11.25-0.34-22.66-2.07-33.69-3.74-4.44-0.68-9-1.37-13.54-2-19.1-2.51-39.44-7.32-64-15.12-16.89-5.36-31.57-10.71-44.88-16.37-5.24-2.22-9.85-7-14-11.85-8.18-9.45-13.13-19.93-14.71-31.15v-0.33a38.11 38.11 0 0 1-0.48-5v-22.78c0-12 0-24.47-0.06-36.71a75.56 75.56 0 0 0-1-11.84c-1-6-11.77-14.87-18-14.87h-19.86c-22.07 0-44.89 0-67.33-0.07h-0.09c-3 0-5.2 0.63-6.69 3.68-2 4.11-4.14 8.25-6.19 12.25-1.73 3.37-3.52 6.85-5.23 10.3a9.22 9.22 0 0 0-0.67 4.06v5.7c0 12.72-0.08 25.87 0.11 38.8a9.12 9.12 0 0 0 2.84 6.24c2.21 1.82 4.42 3.66 6.62 5.49 8.88 7.39 18 15 27.65 21.73 18 12.57 34.52 23.26 50.53 32.69 16.39 9.66 33.68 18.39 50.4 26.84l0.7 0.36c27.81 14.06 58.92 25 92.48 32.63 13.9 3.15 28.29 5.22 42.2 7.23 4.63 0.67 9.26 1.33 13.88 2 22.22 3.4 46.36 4.26 76 2.71 19.65-1 39.52-3.94 58.74-6.76l6.68-1c30.39-4.42 61.42-13.2 97.66-27.62 11-4.39 21.45-10.78 31.53-17l1.25-0.77c18.36-11.25 33.63-20.89 48.52-31.36 9.19-6.47 18.3-13.37 27.11-20 9.26-7 18.83-14.26 28.51-21 6.78-4.73 8-9.91 7.74-16.74-0.28-7.69-0.23-15.52-0.18-23.09 0-5.7 0.08-11.6 0-17.39a62.46 62.46 0 0 0-6.13-26.25 5.89 5.89 0 0 0-6.1-3.74z m-22.21 1.1c7.34 0 14.75 0 22.08-0.1 2.75-0.08 4.1 0.81 5.27 3.23a61.42 61.42 0 0 1 6 25.83c0.1 5.78 0.06 11.67 0 17.36-0.05 7.59-0.1 15.43 0.18 23.13 0.24 6.66-0.88 11.4-7.32 15.89-9.69 6.77-19.27 14-28.53 21-8.81 6.67-17.91 13.56-27.09 20-14.86 10.46-30.12 20.09-48.46 31.33l-1.25 0.77c-10 6.16-20.43 12.53-31.38 16.88-36.17 14.39-67.13 23.15-97.44 27.55l-6.68 1c-19.19 2.82-39 5.73-58.64 6.75-29.56 1.54-53.63 0.69-75.78-2.7-4.62-0.71-9.26-1.37-13.89-2-13.89-2-28.26-4.07-42.12-7.21-33.48-7.58-64.51-18.53-92.25-32.55l-0.7-0.36c-16.71-8.44-34-17.17-50.34-26.81-16-9.41-32.49-20.1-50.47-32.65-9.56-6.68-18.72-14.3-27.58-21.67q-3.3-2.76-6.62-5.5a8.16 8.16 0 0 1-2.48-5.48c-0.19-12.92-0.15-26.07-0.11-38.78v-5.71a8.47 8.47 0 0 1 0.56-3.61c1.71-3.45 3.5-6.92 5.23-10.29 2.06-4 4.18-8.16 6.2-12.27 1.29-2.64 3.09-3.15 5.87-3.12 22.45 0.09 45.27 0.08 67.34 0.07h19.65c5.78 0 16.13 8.52 17 14a73.55 73.55 0 0 1 1 11.68c0.07 12.24 0.06 24.68 0.06 36.71v22.78a38.07 38.07 0 0 0 0.49 5.14v0.32c1.61 11.42 6.63 22.08 14.95 31.68 4.27 4.93 9 9.81 14.4 12.11 13.34 5.67 28 11 45 16.4 24.65 7.82 45 12.64 64.19 15.16 4.51 0.6 9.1 1.29 13.53 2 11.06 1.68 22.5 3.41 33.81 3.76 30.54 0.92 58 1.28 85.28-3.74 4.73-0.87 9.55-1.69 14.21-2.49 11.65-2 23.69-4 35.28-7 17.76-4.61 35.46-10.6 52.58-16.39l3.77-1.28c9.24-3.12 16.32-6.32 22.28-10.06 19-11.91 28.47-29.35 28.23-51.81-0.07-6.88 0-13.87 0-20.64 0.06-9.95 0.12-20.24-0.18-30.36-0.32-11.11 5.6-19 12.23-26.66 0.64-0.75 2.34-1.2 4.55-1.21 11.42-0.08 23-0.07 34.28-0.07h33.63z"  horiz-adv-x="1024" />

    
    <glyph glyph-name="neirongguanli" unicode="&#58978;" d="M184.319891 745.813534v-791.892278h655.359126V745.813534H184.319891zM844.116344 827.733424c42.66661 0 77.34603-34.338088 77.482564-76.731631v-802.268797c0-42.393543-34.611154-76.731631-77.414297-76.731631H179.814297A77.004697 77.004697 0 0 0 102.4-51.267004V751.001793C102.4 793.395337 137.011154 827.733424 179.814297 827.733424h664.233781zM348.159672 746.223133V581.973752a82.807356 82.807356 0 0 0 98.235603 2.59413V746.223133H348.159672z m50.312467-228.010363a2.047997 2.047997 0 0 0 0.409599-0.477866l-43.144476-35.839952A54.613261 54.613261 0 0 0 266.239782 523.947163V828.143024h262.075383v-301.738265a54.613261 54.613261 0 0 0-89.770547-41.84741l-39.526347 33.177555 0.4096 0.477866-0.477866-0.409599-0.477866 0.409599zM111.547721 108.681583c0 20.479973 16.588778 37.068751 37.000484 37.068751h590.232813a37.068751 37.068751 0 1 0 0-74.069235H148.548205a37.068751 37.068751 0 0 0-37.000484 37.000484z"  horiz-adv-x="1024" />

    
    <glyph glyph-name="gerenjiaofeimingxi" unicode="&#58889;" d="M512 384m-512 0a512 512 0 1 1 1024 0 512 512 0 1 1-1024 0ZM461.952 247.04H320.64c-7.296 0-12.8 6.976-12.8 15.296s5.888 15.296 12.8 15.296h141.44c7.232 0 12.8-6.976 12.8-15.36 0-8.32-5.568-15.232-12.8-15.232zM244.864 335.36v-125.056c0-25.344 20.48-45.888 45.824-45.888h289.024c-16.64 23.68-26.752 52.48-26.752 83.392 0 32.96 11.52 63.232 30.208 87.552H244.864z m453.312 57.6c27.072 0 52.096-7.936 73.984-20.8V442.24H244.864v-76.032h369.92c23.68 16.64 52.48 26.752 83.392 26.752z m0.64-220.16a74.24 74.24 0 0 0-73.92 73.984A74.24 74.24 0 0 0 698.88 320.64a74.24 74.24 0 0 0 73.984-73.984 74.24 74.24 0 0 0-73.984-73.984z m122.304-40.64l-42.048 42.368c18.432 18.368 26.048 44.416 26.048 70.464a107.392 107.392 0 0 1-214.656 0c0-59.392 48.32-107.328 107.328-107.328 18.432 0 37.184 7.296 55.616 14.976l41.984-42.368c3.84-3.84 7.296-3.84 11.136-3.84 3.84 0 7.296 0 11.136 3.84 7.296 6.912 7.296 18.048 3.456 21.888z m-48.96 384.128a45.824 45.824 0 0 1-45.888 45.888H290.688a45.824 45.824 0 0 1-45.824-45.888v-43.392h527.296v43.392z"  horiz-adv-x="1024" />

    
    <glyph glyph-name="dibudaohanglan-" unicode="&#58928;" d="M947.2 444.509091H861.090909l48.872727 146.618182c2.327273 9.309091 0 18.618182-6.981818 25.6-6.981818 6.981818-18.618182 6.981818-25.6 2.327272 0 0-86.109091-51.2-141.963636-9.30909-2.327273 2.327273-4.654545 4.654545-9.309091 6.981818-2.327273 2.327273-4.654545 2.327273-6.981818 4.654545V814.545455c2.327273 32.581818-23.272727 58.181818-58.181818 58.181818-32.581818 0-58.181818-25.6-58.181819-58.181818v-53.527273c0-6.981818 6.981818-13.963636 13.963637-13.963637s13.963636 6.981818 13.963636 13.963637V814.545455c0 16.290909 13.963636 32.581818 32.581818 32.581818 16.290909 0 30.254545-13.963636 30.254546-32.581818V616.727273c-4.654545-4.654545-9.309091-6.981818-13.963637-11.636364-58.181818-41.890909-134.981818 11.636364-134.981818 11.636364-9.309091 4.654545-18.618182 4.654545-27.927273 0-6.981818-6.981818-11.636364-16.290909-6.981818-25.6l51.2-146.618182h-104.727272L381.672727 712.145455c-2.327273 13.963636-11.636364 23.272727-23.272727 30.254545-11.636364 6.981818-25.6 9.309091-39.563636 4.654545l-174.545455-46.545454c-13.963636-2.327273-23.272727-11.636364-30.254545-23.272727-6.981818-11.636364-9.309091-25.6-4.654546-39.563637L162.909091 444.509091H76.8c-13.963636 0-23.272727-9.309091-23.272727-23.272727v-470.109091c0-44.218182 34.909091-79.127273 79.127272-79.127273h761.018182c44.218182 0 79.127273 34.909091 79.127273 79.127273V421.236364c-2.327273 11.636364-11.636364 23.272727-25.6 23.272727z m-791.272727 209.454545l2.327272 2.327273 174.545455 46.545455h2.327273l2.327272-2.327273 67.49091-256H209.454545l-55.854545 207.127273c2.327273 0 2.327273 2.327273 2.327273 2.327272z m416.581818-102.4c37.236364-11.636364 88.436364-18.618182 134.981818 13.963637 2.327273 0 2.327273 2.327273 4.654546 2.327272 46.545455-32.581818 100.072727-25.6 139.636363-13.963636L814.545455 442.181818h-204.8l-37.236364 109.381818z m351.418182-600.436363c0-18.618182-13.963636-32.581818-32.581818-32.581818H132.654545c-18.618182 0-32.581818 13.963636-32.581818 32.581818V397.963636h828.509091v-446.836363zM211.781818 607.418182m-27.927273 0a27.927273 27.927273 0 1 1 55.854546 0 27.927273 27.927273 0 1 1-55.854546 0ZM514.327273 297.89090899999997c-46.545455 0-83.781818-37.236364-83.781818-83.781818 0-6.981818 6.981818-13.963636 13.963636-13.963636s13.963636 6.981818 13.963636 13.963636c0 30.254545 25.6 55.854545 55.854546 55.854545s55.854545-25.6 55.854545-55.854545c0-30.254545-25.6-55.854545-55.854545-55.854546H512h-2.327273c-6.981818 0-13.963636-6.981818-13.963636-13.963636v-58.181818c0-6.981818 6.981818-13.963636 13.963636-13.963636s13.963636 6.981818 13.963637 13.963636v44.218182c41.890909 4.654545 72.145455 39.563636 72.145454 81.454545 2.327273 48.872727-34.909091 86.109091-81.454545 86.109091zM514.327273 32.581818m-27.927273 0a27.927273 27.927273 0 1 1 55.854545 0 27.927273 27.927273 0 1 1-55.854545 0Z"  horiz-adv-x="1024" />

    
    <glyph glyph-name="dizhi" unicode="&#58938;" d="M833.536 228.864h-256l74.24 106.496c2.048 3.072 5.12 5.632 8.704 7.68 74.752 40.448 121.344 118.272 121.344 203.776 0 127.488-102.912 230.912-229.376 230.912S322.56 673.792 322.56 546.304c0-84.992 46.592-163.328 121.344-203.776 3.584-2.048 6.656-4.608 8.704-7.68l74.24-106.496H315.392l-178.688-250.368h857.6l-160.768 250.88zM377.344 302.592l113.664-161.792c7.68-11.264 23.04-13.824 33.792-6.144 2.048 1.536 4.096 3.584 6.144 6.144l113.664 161.792c86.016 48.128 138.752 138.752 138.752 237.568 0 150.016-122.368 272.384-272.384 272.384S238.592 690.688 238.592 540.16c0-98.816 52.736-188.928 138.752-237.568z m133.632 461.312c123.392 0 223.744-100.352 223.744-223.744 0-82.432-45.056-158.208-118.272-197.12-3.584-2.048-6.144-4.608-8.192-7.68l-97.28-137.728-97.28 137.728c-2.048 3.072-5.12 5.632-8.192 7.68-72.704 38.912-118.272 114.688-118.272 197.12 0 123.392 100.352 223.744 223.744 223.744z m0-345.6c68.096 0 123.392 55.296 123.392 123.392s-55.296 123.392-123.392 123.392S387.584 609.28 387.584 541.184c0-67.584 55.296-122.88 123.392-122.88z m0 197.632c40.96 0 74.24-33.28 74.24-74.24s-33.28-74.24-74.24-74.24-74.24 33.28-74.24 74.24c0 40.448 33.28 74.24 74.24 74.24z m471.552-649.216c-4.096-7.68-12.288-11.264-21.504-11.264H60.416c-8.704 0-16.896 3.584-21.504 11.264-4.096 7.68-4.096 16.384 0.512 24.064l147.456 242.176c4.608 7.168 12.288 12.8 20.992 12.8H358.4c13.312 0 24.576-11.264 24.576-24.576s-10.752-24.576-24.576-24.576H221.696l-117.76-191.488h813.568l-117.248 191.488h-136.704c-13.312 0-24.576 11.264-24.576 24.576s10.752 24.576 24.576 24.576H814.08c8.704 0 16.384-6.144 20.992-13.312l147.456-241.152c4.096-7.168 4.608-16.896 0-24.576z"  horiz-adv-x="1024" />

    
    <glyph glyph-name="ziyuan" unicode="&#58882;" d="M742.968889-109.037037v34.512593a16.877037 16.877037 0 0 1 16.877037 16.877037V518.257778a16.877037 16.877037 0 0 1-16.877037 16.877037H557.511111a71.68 71.68 0 0 0-53.854815 119.087407 69.973333 69.973333 0 0 1 17.066667 45.321482 64.094815 64.094815 0 0 1-25.78963 51.2 68.456296 68.456296 0 0 1-66.749629 8.343703l4.361481 93.677037c54.613333 15.36 86.281481 22.755556 131.223704-11.188148a179.38963 179.38963 0 0 0 70.921481-141.842963 181.665185 181.665185 0 0 0-7.395555-50.251852h115.674074a130.654815 130.654815 0 0 0 130.654815-130.654814V-57.837037c0-71.86963-58.216296-51.2-130.654815-51.2zM800.047407-126.293333H223.952593a107.899259 107.899259 0 0 0-107.89926 107.899259v186.405926a46.08 46.08 0 0 0 28.444445 42.666667 45.511111 45.511111 0 0 0 49.682963-9.671112A87.798519 87.798519 0 0 1 255.620741 175.407407 87.608889 87.608889 0 0 1 341.333333 282.168889a87.798519 87.798519 0 0 1-72.059259 66.74963 83.057778 83.057778 0 0 1-73.007407-24.841482 45.511111 45.511111 0 0 0-50.062223-10.808889 46.26963 46.26963 0 0 0-29.202963 43.045926V557.700741a107.899259 107.899259 0 0 0 107.89926 107.899259h151.703703a155.685926 155.685926 0 0 0-6.068148 134.637037A155.117037 155.117037 0 0 0 606.814815 862.814815a156.444444 156.444444 0 0 0 61.819259-123.828148 161.943704 161.943704 0 0 0-18.014815-73.386667h149.238519a107.899259 107.899259 0 0 0 107.899259-107.899259v-576.094815a107.899259 107.899259 0 0 0-107.70963-107.899259zM184.32 124.586667v-142.980741a39.632593 39.632593 0 0 1 39.632593-39.632593h576.094814a39.632593 39.632593 0 0 1 39.632593 39.632593V557.700741a39.632593 39.632593 0 0 1-39.632593 39.632592h-185.457777a48.355556 48.355556 0 0 0-44.562963 28.634074 49.493333 49.493333 0 0 0 7.774814 52.717037 92.918519 92.918519 0 0 1 22.755556 60.302223 87.798519 87.798519 0 0 1-34.891852 69.404444 86.091852 86.091852 0 0 1-76.989629 14.222222 84.954074 84.954074 0 0 1-55.182223-48.734814 87.608889 87.608889 0 0 1 16.118519-94.814815 48.924444 48.924444 0 0 0-35.84-82.488889h-189.62963a39.632593 39.632593 0 0 1-39.632592-39.632593v-157.202963a151.703704 151.703704 0 0 0 94.814814 16.118519 155.306667 155.306667 0 1 0-94.814814-291.84z m215.04 508.776296z"  horiz-adv-x="1024" />

    
    <glyph glyph-name="pengyouquan" unicode="&#58984;" d="M652.189 781.365s-55.86 22.614-140.234 22.614c-84.37 0-140.23-25.903-140.23-25.903l280.549-285.449-0.085 288.738zM811.202 678.204c-61.928 58.727-121.8 79.649-121.8 79.649l-2.06-392.072 210.411 199.332c0-0.085-24.535 54.364-86.55 113.09zM906.498 527.222L617.205 250.465h292.667s22.95 55.119 22.95 138.419c-0.087 83.215-26.324 138.338-26.324 138.338zM696.62 8.303s56.813 22.842 118.033 80.602c61.223 57.757 83.1 113.488 83.1 113.488l-409.132 1.946L696.62 8.303zM371.806-15.213s55.864-22.61 140.234-22.61c84.455 0 140.234 25.902 140.234 25.902l-280.548 285.45 0.08-288.742zM224.484 87.953c61.934-58.732 121.806-79.65 121.806-79.65l2.057 392.072-210.411-199.33c0.084 0.08 24.619-54.365 86.548-113.092zM114.134 527.222s-22.956-55.107-22.956-138.378c0-83.276 26.244-138.379 26.244-138.379l289.372 276.672h-292.66v0.085zM339.07 757.853s-56.814-22.843-118.034-80.6c-61.222-57.758-83.1-113.494-83.1-113.494l409.132-1.942L339.07 757.853z"  horiz-adv-x="1024" />

    
    <glyph glyph-name="shequxianxing" unicode="&#58987;" d="M951.5 759.1c-5.3 6.2-12.9 10.1-21.1 10.7-1.8 0.1-45.1 3.3-104.1-7.3-78.4-14.1-148.4-46.3-202.6-93.1-50.3-43.4-87.6-98.9-111.7-165.9-24.1 67-61.4 122.5-111.7 165.9-54.2 46.7-124.2 78.9-202.6 93.1-59 10.6-102.3 7.5-104.1 7.3-8.2-0.6-15.8-4.5-21.1-10.7-5.3-6.2-8-14.3-7.3-22.5 11.4-146.1 61.8-257.1 149.9-330 54-44.7 122.8-74.4 199.2-86.1 26.3-4 49.4-5.3 66.8-5.4v-286.5c0-17.1 13.8-30.9 30.9-30.9 17.1 0 30.9 13.8 30.9 30.9V315.1c17.4 0.1 40.5 1.4 66.8 5.4 76.3 11.6 145.2 41.4 199.2 86.1 88.1 72.9 138.5 183.9 149.9 330 0.6 8.2-2 16.3-7.3 22.5z m-530-377.2c-65.6 10.3-122 34.8-167.5 72.7-67.8 56.4-109.4 141.6-123.8 253.5 15.5-0.7 35.7-2.6 58.5-6.8 46.7-8.6 114.3-29.4 171.6-79.1 65.2-56.5 104.8-139 117.7-245.3-14.8 0.3-34.3 1.5-56.5 5zM770 454.6c-45.6-37.9-101.9-62.3-167.5-72.7-22.1-3.5-41.7-4.7-56.6-5 13 106.4 52.5 188.8 117.7 245.3 57.3 49.7 125 70.4 171.6 79.1 22.8 4.2 43 6.1 58.5 6.8C879.4 596.2 837.8 511 770 454.6z"  horiz-adv-x="1024" />

    
    <glyph glyph-name="leixing" unicode="&#58900;" d="M516.8 454.7h324.6c11.3 0 20.5-9.2 20.5-20.5s-9.2-20.5-20.5-20.5H516.8c-11.3 0-20.5 9.2-20.5 20.5s9.2 20.5 20.5 20.5zM516.8 290.9h324.6c11.3 0 20.5-9.2 20.5-20.5s-9.2-20.5-20.5-20.5H516.8c-11.3 0-20.5 9.2-20.5 20.5 0 11.4 9.2 20.5 20.5 20.5zM516.8 127.2h324.6c11.3 0 20.5-9.2 20.5-20.5s-9.2-20.5-20.5-20.5H516.8c-11.3 0-20.5 9.2-20.5 20.5s9.2 20.5 20.5 20.5zM411.3 391.7H206.6c-12.2 0-22 9.9-22 22V618.4c0 12.1 9.8 22 22 22h204.7c12.2 0 22-9.9 22-22v-204.6c0-12.2-9.8-22.1-22-22.1z m-182.7 44h160.7V596.4H228.6v-160.7zM411.3 64.3H206.6c-12.2 0-22 9.9-22 22V290.9c0 12.1 9.8 22 22 22h204.7c12.2 0 22-9.9 22-22v-204.7c0-12.1-9.8-21.9-22-21.9z m-182.7 44h160.7V268.9H228.6v-160.6zM516.8 618.4h324.6c11.3 0 20.5-9.2 20.5-20.5s-9.2-20.5-20.5-20.5H516.8c-11.3 0-20.5 9.2-20.5 20.5s9.2 20.5 20.5 20.5z"  horiz-adv-x="1024" />

    
    <glyph glyph-name="tuichudenglu" unicode="&#58897;" d="M512 442.3c-17.7 0-32 14.3-32 32V778.1c0 17.7 14.3 32 32 32s32-14.3 32-32v-303.8c0-17.7-14.3-32-32-32zM512-42.2c-193.4 0-350.7 157.3-350.7 350.7 0 130.4 71.8 249.3 187.4 310.2 15.6 8.2 35 2.3 43.3-13.4 8.2-15.6 2.3-35-13.4-43.3-94.6-49.8-153.3-147-153.3-253.6 0-158.1 128.6-286.7 286.7-286.7s286.7 128.6 286.7 286.7c0 106.3-58.4 203.3-152.5 253.3-15.6 8.3-21.5 27.7-13.3 43.3 8.3 15.6 27.7 21.5 43.3 13.3 115-61.1 186.5-179.8 186.5-309.8 0-193.4-157.3-350.7-350.7-350.7z"  horiz-adv-x="1024" />

    


  </font>
</defs>
</svg>
